<?xml version="1.0" standalone="no"?>
<!DOCTYPE svg PUBLIC "-//W3C//DTD SVG 1.1//EN" "http://www.w3.org/Graphics/SVG/1.1/DTD/svg11.dtd" >
<svg>
<metadata>
Created by FontForge 20090914 at Wed Jun 14 06:40:08 2017
 By www-data
Copyright 2012 Google Inc. All Rights Reserved.
</metadata>
<defs>
<font id="KohSantepheapLight" horiz-adv-x="0" >
  <font-face 
    font-family="Koh Santepheap Light"
    font-weight="300"
    font-stretch="normal"
    units-per-em="2048"
    panose-1="2 11 6 6 3 8 4 2 2 4"
    ascent="1638"
    descent="-410"
    bbox="-2600 -555.001 3900 2160"
    underline-thickness="102"
    underline-position="-103"
    unicode-range="U+0020-U+200B"
  />
<missing-glyph horiz-adv-x="2048" 
 />
    <glyph glyph-name=".notdef" horiz-adv-x="2048" 
 />
    <glyph glyph-name="space" unicode=" " horiz-adv-x="532" 
 />
    <glyph glyph-name="exclam" unicode="!" horiz-adv-x="530" 
d="M219 1227v145h94l-2 -145l-12 -860h-68zM178 68c0 30 8.83301 53.167 26.5 69.5s38.167 24.5 61.5 24.5s43.5 -8.16699 60.5 -24.5s25.5 -39.5 25.5 -69.5c0 -28.667 -8.5 -51.334 -25.5 -68.001s-37.167 -25 -60.5 -25s-43.833 8.33301 -61.5 25
s-26.5 39.334 -26.5 68.001z" />
    <glyph glyph-name="quotedbl" unicode="&#x22;" horiz-adv-x="737" 
d="M171 1278l-2 141h104v-141l-18 -301h-68zM460 1278l-2 141h104v-141l-18 -301h-68z" />
    <glyph glyph-name="numbersign" unicode="#" horiz-adv-x="980" 
d="M243 438h-170v74h178l43 348h-180v74h188l52 397h71l-51 -397h305l53 397h70l-51 -397h168v-74h-174l-43 -348h176v-74h-187l-51 -438h-71l51 438h-305l-54 -438h-71zM630 512l43 348h-307l-43 -348h307z" />
    <glyph glyph-name="dollar" unicode="$" horiz-adv-x="980" 
d="M769 1130c-18.667 19.333 -37.3311 36.499 -55.998 51.499s-38.167 28 -58.5 39s-42.833 19.167 -67.5 24.5s-52.667 8 -84 8c-71.333 0 -128.833 -22.167 -172.5 -66.5s-65.5 -100.5 -65.5 -168.5c0 -60 14.667 -108.167 44 -144.5s66 -67.833 110 -94.5
s91.5 -51.167 142.5 -73.5s98.333 -49.666 142 -81.999s80.167 -72.666 109.5 -120.999s44 -111.5 44 -189.5c0 -98 -29.667 -176.333 -89 -235s-134.666 -92.334 -225.999 -101.001v-202h-80v202c-70.667 6 -135.5 24.333 -194.5 55s-108.167 65 -147.5 103l49 64
c40 -36 87.167 -69 141.5 -99s117.166 -45 188.499 -45c86 0 151.833 23.333 197.5 70s68.5 107.334 68.5 182.001c0 67.333 -14.667 121.666 -44 162.999s-65.833 76.833 -109.5 106.5s-91.167 56 -142.5 79s-98.833 49.5 -142.5 79.5s-80.167 66.5 -109.5 109.5
s-44 99.5 -44 169.5c0 42 7.16699 81.5 21.5 118.5s34.166 69.5 59.499 97.5s55.833 50.833 91.5 68.5s74.5 28.5 116.5 32.5v203h80v-203c66.667 -4 121.167 -19.667 163.5 -47s81.166 -59.333 116.499 -96z" />
    <glyph glyph-name="percent" unicode="%" horiz-adv-x="1648" 
d="M370 526c-90 0 -160.667 36.5 -212 109.5s-77 178.5 -77 316.5c0 136.667 25.667 241.167 77 313.5s122 108.5 212 108.5s160.667 -36.167 212 -108.5s77 -176.833 77 -313.5c0 -138 -25.667 -243.5 -77 -316.5s-122 -109.5 -212 -109.5zM370 594
c64 0 114.833 31 152.5 93s56.5 150.333 56.5 265s-18.833 202.5 -56.5 263.5s-88.5 91.5 -152.5 91.5s-114.833 -30.5 -152.5 -91.5s-56.5 -148.833 -56.5 -263.5s18.833 -203 56.5 -265s88.5 -93 152.5 -93zM405 -25l753 1399h78l-752 -1399h-79zM1277 -25
c-90 0 -160.667 36.667 -212 110s-77 178.666 -77 315.999c0 136.667 25.667 241.167 77 313.5s122 108.5 212 108.5s160.667 -36.167 212 -108.5s77 -176.833 77 -313.5c0 -137.333 -25.667 -242.666 -77 -315.999s-122 -110 -212 -110zM1277 43c64 0 114.833 31 152.5 93
s56.5 150.333 56.5 265s-18.833 202.5 -56.5 263.5s-88.5 91.5 -152.5 91.5s-114.833 -30.5 -152.5 -91.5s-56.5 -148.833 -56.5 -263.5s18.833 -203 56.5 -265s88.5 -93 152.5 -93z" />
    <glyph glyph-name="ampersand" unicode="&#x26;" horiz-adv-x="1177" 
d="M470 53c56 0 109.333 13.332 160 39.999s97 62 139 106c-72 65.333 -141.833 139 -209.5 221s-125.5 166.667 -173.5 254c-30 -23.333 -58.333 -47.333 -85 -72s-50.167 -50.334 -70.5 -77.001s-36.333 -54.667 -48 -84s-17.5 -60.333 -17.5 -93
c0 -44.667 8.16699 -85.167 24.5 -121.5s38.166 -67.166 65.499 -92.499s59.833 -45.166 97.5 -59.499s76.834 -21.5 117.501 -21.5zM343 1077c0 -44.667 6.83301 -91.3291 20.5 -139.996s32.167 -97.334 55.5 -146.001c34 24 66.833 48.333 98.5 73s59.667 50.667 84 78
s43.666 55.666 57.999 84.999s21.5 61.666 21.5 96.999c0 22 -2.66699 43.667 -8 65s-13.833 40.166 -25.5 56.499s-26.667 29.5 -45 39.5s-41.166 15 -68.499 15c-60 0 -106.833 -21.833 -140.5 -65.5s-50.5 -96.167 -50.5 -157.5zM1120 -24.9961
c-89.333 32 -185.664 88.6641 -288.997 169.997c-49.333 -50 -104 -90.833 -164 -122.5s-128.333 -47.5 -205 -47.5c-53.333 0 -103.833 8.66699 -151.5 26s-89 42 -124 74s-62.667 70.5 -83 115.5s-30.5 95.5 -30.5 151.5c0 45.333 7.83301 86.333 23.5 123
s36.167 71 61.5 103s54.666 62 87.999 90s67.666 55 102.999 81c-26.667 57.333 -48.334 114.333 -65.001 171s-25 111 -25 163c0 44 6.83301 84.333 20.5 121s32.834 68.334 57.501 95.001s54 47.5 88 62.5s71.667 22.5 113 22.5c73.333 0 129.166 -23.167 167.499 -69.5
s57.5 -105.166 57.5 -176.499c0 -43.333 -8.83301 -83.5 -26.5 -120.5s-41.167 -71.5 -70.5 -103.5s-62.833 -62.667 -100.5 -92l-113.5 -87c48 -86 105 -169.333 171 -250s134 -151.667 204 -213c47.333 61.333 88.833 129.333 124.5 204s65.167 155 88.5 241h88
c-27.333 -93.333 -60.5 -182 -99.5 -266s-85.833 -160.667 -140.5 -230c48 -38 93.833 -69.667 137.5 -95s85.167 -45.666 124.5 -60.999z" />
    <glyph glyph-name="quotesingle" unicode="'" horiz-adv-x="448" 
d="M171 1278l-2 141h104v-141l-18 -301h-68z" />
    <glyph glyph-name="parenleft" unicode="(" horiz-adv-x="571" 
d="M450 -358c-84.667 136 -150.834 279.497 -198.501 430.497s-71.5 316.5 -71.5 496.5c0 180.667 23.833 346.334 71.5 497.001s113.834 294.334 198.501 431.001l56 -33c-82 -129.333 -143.5 -270.166 -184.5 -422.499s-61.5 -309.833 -61.5 -472.5
c0 -162 20.5 -319.167 61.5 -471.5s102.5 -293.5 184.5 -423.5l-56 -32v0z" />
    <glyph glyph-name="parenright" unicode=")" horiz-adv-x="571" 
d="M65 -326c82 130 143.5 271.17 184.5 423.503s61.5 309.5 61.5 471.5c0 162.667 -20.5 320.167 -61.5 472.5s-102.5 293.166 -184.5 422.499l55 33c83.333 -136.667 149.333 -280.334 198 -431.001s73 -316.334 73 -497.001c0 -180 -24.333 -345.5 -73 -496.5
s-114.667 -294.5 -198 -430.5l-55 32v0z" />
    <glyph glyph-name="asterisk" unicode="*" horiz-adv-x="808" 
d="M215 987l112 180l-184 74l18 62l195 -54l14 209h66l14 -207l195 52l20 -62l-184 -74l111 -180l-56 -41l-131 170l-135 -170z" />
    <glyph glyph-name="plus" unicode="+" horiz-adv-x="980" 
d="M448 637h-379v78h379v411h84v-411h379v-78h-379v-412h-84v412z" />
    <glyph glyph-name="comma" unicode="," horiz-adv-x="448" 
d="M98 -256c46.667 24.667 84.333 57.833 113 99.5s43.667 91.167 45 148.5c-5.33301 -1.33301 -13.666 -2 -24.999 -2c-23.333 0 -43.5 7.5 -60.5 22.5s-25.5 36.167 -25.5 63.5s8.83301 48.5 26.5 63.5s38.167 22.5 61.5 22.5c31.333 0 56.666 -13 75.999 -39
s29 -61.667 29 -107c0 -74.667 -19.833 -140.667 -59.5 -198s-90.167 -102.333 -151.5 -135z" />
    <glyph glyph-name="hyphen" unicode="-" horiz-adv-x="612" 
d="M81 551h451v-80h-451v80z" />
    <glyph glyph-name="period" unicode="." horiz-adv-x="448" 
d="M137 68c0 30 8.83301 53.167 26.5 69.5s38.167 24.5 61.5 24.5s43.5 -8.16699 60.5 -24.5s25.5 -39.5 25.5 -69.5c0 -28.667 -8.5 -51.334 -25.5 -68.001s-37.167 -25 -60.5 -25s-43.833 8.33301 -61.5 25s-26.5 39.334 -26.5 68.001z" />
    <glyph glyph-name="slash" unicode="/" horiz-adv-x="731" 
d="M643 1454h77l-624 -1782h-78z" />
    <glyph glyph-name="zero" unicode="0" horiz-adv-x="980" 
d="M489 -25c-125.333 0 -221.833 59.167 -289.5 177.5s-101.5 287.166 -101.5 506.499c0 218.667 33.833 385.667 101.5 501s164.167 173 289.5 173c126 0 222.667 -57.667 290 -173s101 -282.333 101 -501c0 -219.333 -33.667 -388.166 -101 -506.499
s-164 -177.5 -290 -177.5zM489 53c91.333 0 164 50.833 218 152.5s81 252.834 81 453.501c0 201.333 -27 351 -81 449s-126.667 147 -218 147c-90 0 -162.333 -49 -217 -147s-82 -247.667 -82 -449c0 -200.667 27.333 -351.834 82 -453.501s127 -152.5 217 -152.5z" />
    <glyph glyph-name="one" unicode="1" horiz-adv-x="980" 
d="M172 80h307v1085h-233v62c53.333 9.33301 100.833 20.833 142.5 34.5s78.167 29.5 109.5 47.5h73v-1229h285v-80h-684v80z" />
    <glyph glyph-name="two" unicode="2" horiz-adv-x="980" 
d="M83 57l283.003 294c80.667 86.667 147.834 165.834 201.501 237.501s93.834 138 120.501 199s40 120.167 40 177.5c0 81.333 -22.833 150 -68.5 206s-117.5 84 -215.5 84c-60.667 0 -116.834 -16.333 -168.501 -49s-97.5 -73.667 -137.5 -123l-59 58
c49.333 54.667 103.666 100.334 162.999 137.001s129.333 55 210 55c117.333 0 208 -33.333 272 -100s96 -155.334 96 -266.001c0 -66 -14.333 -131.333 -43 -196s-68.834 -132.834 -120.501 -204.501s-114.834 -148.167 -189.501 -229.5l-247 -265
c36 2.66699 72.667 5 110 7s73.666 3 108.999 3h447v-82h-803v57z" />
    <glyph glyph-name="three" unicode="3" horiz-adv-x="980" 
d="M112 223c19.333 -22 40.6699 -42.8271 64.0029 -62.4941s49.666 -37.334 78.999 -53.001s62 -28.334 98 -38.001s76.667 -14.5 122 -14.5c43.333 0 83.833 6.83301 121.5 20.5s70.167 33.167 97.5 58.5s48.5 55.833 63.5 91.5s22.5 75.167 22.5 118.5
c0 45.333 -8.5 86.333 -25.5 123s-44 68.334 -81 95.001s-84.167 47.5 -141.5 62.5s-127 22.5 -209 22.5v80c75.333 0 139.333 7.5 192 22.5s95 35.167 127 60.5s55.167 55.333 69.5 90s21.5 72 21.5 112c0 73.333 -24 132.166 -72 176.499s-112 66.5 -192 66.5
c-62 0 -118.167 -14 -168.5 -42s-94.5 -61.667 -132.5 -101l-54 62c45.333 43.333 96.666 80.666 153.999 111.999s124.333 47 201 47c50 0 96.833 -7.16699 140.5 -21.5s81.667 -34.833 114 -61.5s57.666 -59.334 75.999 -98.001s27.5 -83.334 27.5 -134.001
c0 -86 -23.5 -155.333 -70.5 -208s-106.833 -91.334 -179.5 -116.001v-8c41.333 -8 79.666 -22 114.999 -42s66.666 -44.333 93.999 -73s48.833 -61.667 64.5 -99s23.5 -79.333 23.5 -126c0 -57.333 -10.167 -108.833 -30.5 -154.5s-48.666 -84.5 -84.999 -116.5
s-78.666 -56.667 -126.999 -74s-100.5 -26 -156.5 -26c-52 0 -99.167 5.5 -141.5 16.5s-80.166 25.333 -113.499 43s-63.333 37.5 -90 59.5s-50.334 44 -71.001 66z" />
    <glyph glyph-name="four" unicode="4" horiz-adv-x="980" 
d="M634 469v479c0 30 0.666992 67.5 2 112.5s3.33301 82.833 6 113.5h-8c-16 -27.333 -33 -54 -51 -80s-36.333 -54 -55 -84l-385 -541h491zM917 391h-195v-391h-88v391h-602v53l608 865h82v-840h195v-78z" />
    <glyph glyph-name="five" unicode="5" horiz-adv-x="980" 
d="M104 215c19.333 -20.667 40.667 -40.501 64 -59.501s49.333 -36 78 -51s60.667 -27 96 -36s75.666 -13.5 120.999 -13.5c43.333 0 84.833 8.5 124.5 25.5s74.167 41 103.5 72s52.833 68 70.5 111s26.5 91.167 26.5 144.5c0 106 -28.667 188.667 -86 248s-135 89 -233 89
c-50.667 0 -94.167 -7.83301 -130.5 -23.5s-74.166 -37.167 -113.499 -64.5l-63 39l47 613h604v-80h-522l-41 -473c34 20 69.333 36.5 106 49.5s79 19.5 127 19.5c54.667 0 106.5 -8.16699 155.5 -24.5s91.333 -41.166 127 -74.499s64 -76.333 85 -129
s31.5 -114.334 31.5 -185.001c0 -70 -11.833 -132 -35.5 -186s-55 -99.667 -94 -137s-83.333 -65.666 -133 -84.999s-101.167 -29 -154.5 -29c-52 0 -98.833 5.16699 -140.5 15.5s-79.167 24 -112.5 41s-63 36.167 -89 57.5s-49.333 42.333 -70 63z" />
    <glyph glyph-name="six" unicode="6" horiz-adv-x="980" 
d="M536 53c38 0 73.1699 8.5 105.503 25.5s60 40.667 83 71s41.333 65.5 55 105.5s20.5 83.333 20.5 130s-5.33301 90 -16 130s-27.334 74.833 -50.001 104.5s-52.167 52.667 -88.5 69s-78.833 24.5 -127.5 24.5c-46.667 0 -98 -14.667 -154 -44s-110.667 -80.333 -164 -153
c4 -69.333 13.833 -132.333 29.5 -189s37.167 -105.167 64.5 -145.5s61.166 -71.833 101.499 -94.5s87.166 -34 140.499 -34zM808.003 1145c-28.667 35.333 -62.0029 62.1689 -100.003 80.502s-78.333 27.5 -121 27.5c-52 0 -101.167 -10.833 -147.5 -32.5
s-87.166 -57.834 -122.499 -108.501s-63.666 -117.334 -84.999 -200.001s-32.666 -184 -33.999 -304c45.333 56 96.333 100.5 153 133.5s115.667 49.5 177 49.5c116 0 205.667 -34.5 269 -103.5s95 -169.833 95 -302.5c0 -60 -9.5 -115 -28.5 -165s-44.833 -93 -77.5 -129
s-70.5 -64.333 -113.5 -85s-89.167 -31 -138.5 -31c-132.667 0 -237.167 53.333 -313.5 160s-114.5 259.667 -114.5 459c0 136.667 13.333 252 40 346s62.167 170.333 106.5 229s95.5 100.667 153.5 126s118.333 38 181 38c61.333 0 114.333 -11.5 159 -34.5
s84 -53.833 118 -92.5z" />
    <glyph glyph-name="seven" unicode="7" horiz-adv-x="980" 
d="M385 0c5.33301 132.667 16.499 253.831 33.499 363.498s41.333 213.334 73 311.001s71.334 191.334 119.001 281.001s104.167 180.834 169.5 273.501h-690v80h805v-54c-78 -103.333 -142.5 -202.833 -193.5 -298.5s-92 -193 -123 -292s-53.333 -202.333 -67 -310
s-23.167 -225.834 -28.5 -354.501h-98v0z" />
    <glyph glyph-name="eight" unicode="8" horiz-adv-x="980" 
d="M171 340c0 -40.667 8.16504 -78.5029 24.498 -113.503s38.833 -65.5 67.5 -91.5s62.834 -46.5 102.501 -61.5s83.5 -22.5 131.5 -22.5c46 0 87.833 6.83301 125.5 20.5s69.834 32.834 96.501 57.501s47.167 53.334 61.5 86.001s21.5 67.334 21.5 104.001
c0 50.667 -11.333 93.5 -34 128.5s-52.667 65.833 -90 92.5s-80 49.834 -128 69.501l-147 60.5c-67.333 -40 -122.833 -86.833 -166.5 -140.5s-65.5 -116.834 -65.5 -189.501zM592.998 685.997c56 45.333 98.665 92.834 127.998 142.501s44 103.167 44 160.5
c0 36.667 -6.16699 71.167 -18.5 103.5s-29.666 60.666 -51.999 84.999s-50.333 43.666 -84 57.999s-71.5 21.5 -113.5 21.5c-37.333 0 -71.333 -6 -102 -18s-57.167 -28.667 -79.5 -50s-39.666 -47 -51.999 -77s-18.5 -62.667 -18.5 -98
c0 -46.667 9.83301 -86.667 29.5 -120s46 -62.666 79 -87.999s70.167 -47.5 111.5 -66.5s84 -36.833 128 -53.5zM80.9961 335.998c0 43.333 7.82715 84.167 23.4941 122.5s36.167 72.833 61.5 103.5s53.333 58 84 82s61.667 44.333 93 61v8c-24.667 16 -48.167 34 -70.5 54
s-42.166 42.5 -59.499 67.5s-31.333 52.333 -42 82s-16 62.167 -16 97.5c0 46 8.83301 88.833 26.5 128.5s41.834 73.5 72.501 101.5s66.834 49.833 108.501 65.5s86.5 23.5 134.5 23.5c56 0 105.833 -8.5 149.5 -25.5s80.834 -40.833 111.501 -71.5
s53.834 -66.834 69.501 -108.501s23.5 -87.167 23.5 -136.5c0 -35.333 -6.16699 -69.666 -18.5 -102.999s-27.666 -64.333 -45.999 -93s-38.5 -54.667 -60.5 -78s-42.333 -42.666 -61 -57.999v-8c28.667 -17.333 56.667 -36.333 84 -57s51.5 -44 72.5 -70s38.333 -56 52 -90
s20.5 -73 20.5 -117c0 -47.333 -9.5 -91.833 -28.5 -133.5s-46 -77.834 -81 -108.501s-77 -55 -126 -73s-102.833 -27 -161.5 -27c-60 0 -115.333 9.33301 -166 28s-94.5 44 -131.5 76s-66 69.833 -87 113.5s-31.5 91.5 -31.5 143.5z" />
    <glyph glyph-name="nine" unicode="9" horiz-adv-x="980" 
d="M463 596c46 0 97.001 15.3301 153.001 45.9971s110.667 81.667 164 153c-4 69.333 -13.833 132.333 -29.5 189s-37.5 105.167 -65.5 145.5s-62.167 71.333 -102.5 93s-87.166 32.5 -140.499 32.5c-36.667 0 -71.334 -8.5 -104.001 -25.5s-60.667 -40.167 -84 -69.5
s-41.833 -64.166 -55.5 -104.499s-20.5 -83.5 -20.5 -129.5c0 -48 5.5 -92.167 16.5 -132.5s28.167 -75.166 51.5 -104.499s52.666 -52.166 87.999 -68.499s78.333 -24.5 129 -24.5zM170.001 163.997c28.667 -35.333 62.1699 -62.332 100.503 -80.999
s79.166 -28 122.499 -28c52 0 101.167 11 147.5 33s87.333 58.167 123 108.5s64 116.833 85 199.5s32.167 184 33.5 304c-44.667 -54.667 -95.667 -98.334 -153 -131.001s-117 -49 -179 -49c-114.667 0 -203.667 34.5 -267 103.5s-95 169.833 -95 302.5
c0 58.667 9.5 113.167 28.5 163.5s45 93.333 78 129s71 63.667 114 84s88.833 30.5 137.5 30.5c131.333 0 235.166 -52.833 311.499 -158.5s114.5 -258.167 114.5 -457.5c0 -138 -13.167 -254.167 -39.5 -348.5s-61.5 -170.5 -105.5 -228.5s-95.333 -100 -154 -126
s-119.334 -39 -182.001 -39c-61.333 0 -114.5 11.667 -159.5 35s-83.833 54 -116.5 92z" />
    <glyph glyph-name="colon" unicode=":" horiz-adv-x="448" 
d="M137 850c0 30 8.83301 53.167 26.5 69.5s38.167 24.5 61.5 24.5s43.5 -8.16699 60.5 -24.5s25.5 -39.5 25.5 -69.5c0 -28.667 -8.5 -51.167 -25.5 -67.5s-37.167 -24.5 -60.5 -24.5s-43.833 8.16699 -61.5 24.5s-26.5 38.833 -26.5 67.5zM137 68
c0 30 8.83301 53.167 26.5 69.5s38.167 24.5 61.5 24.5s43.5 -8.16699 60.5 -24.5s25.5 -39.5 25.5 -69.5c0 -28.667 -8.5 -51.334 -25.5 -68.001s-37.167 -25 -60.5 -25s-43.833 8.33301 -61.5 25s-26.5 39.334 -26.5 68.001z" />
    <glyph glyph-name="semicolon" unicode=";" horiz-adv-x="448" 
d="M137 850c0 30 8.83301 53.167 26.5 69.5s38.167 24.5 61.5 24.5s43.5 -8.16699 60.5 -24.5s25.5 -39.5 25.5 -69.5c0 -28.667 -8.5 -51.167 -25.5 -67.5s-37.167 -24.5 -60.5 -24.5s-43.833 8.16699 -61.5 24.5s-26.5 38.833 -26.5 67.5zM98 -256
c46.667 24.667 84.333 57.833 113 99.5s43.667 91.167 45 148.5c-5.33301 -1.33301 -13.666 -2 -24.999 -2c-23.333 0 -43.5 7.5 -60.5 22.5s-25.5 36.167 -25.5 63.5s8.83301 48.5 26.5 63.5s38.167 22.5 61.5 22.5c31.333 0 56.666 -13 75.999 -39s29 -61.667 29 -107
c0 -74.667 -19.833 -140.667 -59.5 -198s-90.167 -102.333 -151.5 -135z" />
    <glyph glyph-name="less" unicode="&#x3c;" horiz-adv-x="980" 
d="M69 725l842 336v-88l-475 -185l-273 -104v-8l273 -105l475 -184v-88l-842 336v90z" />
    <glyph glyph-name="equal" unicode="=" horiz-adv-x="980" 
d="M69 924h842v-78h-842v78zM69 508h842v-78h-842v78z" />
    <glyph glyph-name="greater" unicode="&#x3e;" horiz-adv-x="980" 
d="M911 635l-842 -336v88l475 184l273 105v8l-273 104l-475 185v88l842 -336v-90z" />
    <glyph glyph-name="question" unicode="?" horiz-adv-x="823" 
d="M333 367c-8 56 -6.16504 106.833 5.50195 152.5s28.334 88 50.001 127s46.167 75.5 73.5 109.5l78 101c24.667 33.333 45.167 67.833 61.5 103.5s24.5 74.5 24.5 116.5c0 31.333 -4.5 61.666 -13.5 90.999s-23 55 -42 77s-43.167 39.5 -72.5 52.5s-64 19.5 -104 19.5
c-50 0 -98 -11.333 -144 -34s-86 -55 -120 -97l-55 51c39.333 45.333 85.666 83.333 138.999 114s115.666 46 186.999 46c50 0 94.833 -7.83301 134.5 -23.5s73.167 -37.5 100.5 -65.5s48.166 -61.167 62.499 -99.5s21.5 -80.166 21.5 -125.499
c0 -46 -8.5 -88.5 -25.5 -127.5s-37.833 -76.167 -62.5 -111.5s-51 -70.5 -79 -105.5s-53.167 -71.333 -75.5 -109s-40 -78 -53 -121s-16.167 -90.167 -9.5 -141.5h-82zM294.002 68c0 30 8.5 53.167 25.5 69.5s37.167 24.5 60.5 24.5s43.833 -8.16699 61.5 -24.5
s26.5 -39.5 26.5 -69.5c0 -28.667 -8.83301 -51.334 -26.5 -68.001s-38.167 -25 -61.5 -25s-43.5 8.33301 -60.5 25s-25.5 39.334 -25.5 68.001z" />
    <glyph glyph-name="at" unicode="@" horiz-adv-x="1667" 
d="M106 414c0 133.333 22.167 254.331 66.5 362.998s103.666 201.5 177.999 278.5s160.666 136.333 258.999 178s201.5 62.5 309.5 62.5c98.667 0 187.834 -15.667 267.501 -47s147.167 -75.333 202.5 -132s98 -124.834 128 -204.501s45 -168.167 45 -265.5
c0 -87.333 -11.667 -164.166 -35 -230.499s-53.333 -122 -90 -167s-77.167 -78.667 -121.5 -101s-87.833 -33.5 -130.5 -33.5c-54.667 0 -100 12.5 -136 37.5s-56.667 64.167 -62 117.5h-4c-36 -39.333 -74.833 -73 -116.5 -101s-86.167 -42 -133.5 -42
c-31.333 0 -61.333 5.83301 -90 17.5s-53.667 29 -75 52s-38.166 52 -50.499 87s-18.5 75.833 -18.5 122.5c0 48.667 8.5 100.334 25.5 155.001s42 104.5 75 149.5s73 82.167 120 111.5s100.5 44 160.5 44c72.667 0 129.334 -32.667 170.001 -98h4l19 82h69l-73 -387
c-46.667 -184.667 -6 -277 122 -277c33.333 0 67.333 10.333 102 31s66 50.5 94 89.5s51.167 86.333 69.5 142s27.5 119.834 27.5 192.501c0 87.333 -13.333 167.166 -40 239.499s-64.5 133.833 -113.5 184.5s-108.667 90 -179 118s-149.833 42 -238.5 42
c-94 0 -184.833 -19.167 -272.5 -57.5s-165.167 -92.666 -232.5 -162.999s-121.5 -155 -162.5 -254s-61.5 -209.167 -61.5 -330.5c0 -100 15 -189.833 45 -269.5s72 -147.167 126 -202.5s118.833 -98 194.5 -128s159.167 -45 250.5 -45c68.667 0 131 8.83301 187 26.5
s108.333 41.5 157 71.5l33 -61c-117.333 -74 -245 -111 -383 -111c-98 0 -189 16 -273 48s-156.833 78.5 -218.5 139.5s-109.834 135.5 -144.501 223.5s-52 188.667 -52 302zM581 411.998c0 -78 15.6689 -132.667 47.002 -164s70.333 -47 117 -47
c68 0 141.667 45.667 221 137l64 354c-24.667 38.667 -48.334 65.167 -71.001 79.5s-49.667 21.5 -81 21.5c-46.667 0 -88.334 -12 -125.001 -36s-67.667 -54.5 -93 -91.5s-44.833 -78 -58.5 -123s-20.5 -88.5 -20.5 -130.5z" />
    <glyph glyph-name="braceleft" unicode="{" horiz-adv-x="571" 
d="M528 -252v-58.998h-70c-38 0 -71 4 -99 12s-51.667 22 -71 42s-33.666 46.667 -42.999 80s-14 76 -14 128c0 76.667 2.66699 148 8 214s8 134.667 8 206c0 20 -2.33301 40.333 -7 61s-13.5 38.5 -26.5 53.5s-31.167 27.333 -54.5 37s-52.666 14.5 -87.999 14.5v65
c35.333 0 64.666 4.83301 87.999 14.5s41.5 22 54.5 37s21.833 32 26.5 51s7 38.833 7 59.5c0 73.333 -2.66699 143.166 -8 209.499s-8 137.833 -8 214.5c0 52 4.66699 94.667 14 128s23.666 59.833 42.999 79.5s43 33.667 71 42s61 12.5 99 12.5h70v-59h-64
c-62.667 0 -104.5 -17.167 -125.5 -51.5s-31.5 -87.5 -31.5 -159.5c0 -67.333 2 -131.333 6 -192s6 -128 6 -202c0 -61.333 -7.16699 -109 -21.5 -143s-42.166 -57.333 -83.499 -70v-8c41.333 -12 69.166 -35.833 83.499 -71.5s21.5 -82.834 21.5 -141.501
c0 -73.333 -2 -140.5 -6 -201.5s-6 -124.833 -6 -191.5c0 -72.667 10.5 -126 31.5 -160s62.833 -51 125.5 -51h64z" />
    <glyph glyph-name="bar" unicode="|" horiz-adv-x="462" 
d="M194 1536h74v-2048h-74v2048z" />
    <glyph glyph-name="braceright" unicode="}" horiz-adv-x="571" 
d="M106 -252c63.333 0 105.5 16.998 126.5 50.998s31.5 87.333 31.5 160c0 66.667 -2 130.5 -6 191.5s-6 128.167 -6 201.5c0 58.667 7.5 105.834 22.5 141.501s42.167 59.5 81.5 71.5v8c-39.333 12.667 -66.5 36 -81.5 70s-22.5 81.667 -22.5 143c0 74 2 141.333 6 202
s6 124.667 6 192c0 72 -10.5 125.167 -31.5 159.5s-63.167 51.5 -126.5 51.5h-63v59h70c38 0 71 -4.16699 99 -12.5s51.5 -22.333 70.5 -42s33.333 -46.167 43 -79.5s14.5 -76 14.5 -128c0 -76.667 -2.66699 -148.167 -8 -214.5s-8 -136.166 -8 -209.499
c0 -20.667 2.33301 -40.5 7 -59.5s13.5 -36 26.5 -51s31 -27.333 54 -37s52.5 -14.5 88.5 -14.5v-65c-36 0 -65.5 -4.83301 -88.5 -14.5s-41 -22 -54 -37s-21.833 -32.833 -26.5 -53.5s-7 -41 -7 -61c0 -71.333 2.66699 -140 8 -206s8 -137.333 8 -214
c0 -52 -4.83301 -94.667 -14.5 -128s-24 -60 -43 -80s-42.5 -34 -70.5 -42s-61 -12 -99 -12h-70v59h63z" />
    <glyph glyph-name="asciitilde" unicode="~" horiz-adv-x="980" 
d="M81 637c30 57.333 65.167 100 105.5 128s80.166 42 119.499 42c40 0 76 -9.5 108 -28.5s62.667 -40.167 92 -63.5s57.666 -44.5 84.999 -63.5s56 -28.5 86 -28.5c31.333 0 60 9.5 86 28.5s51.333 52.5 76 100.5l57 -41c-28.667 -56 -63.167 -97.667 -103.5 -125
s-80.166 -41 -119.499 -41c-40 0 -76 9.5 -108 28.5s-62.667 40.167 -92 63.5s-57.666 44.5 -84.999 63.5s-56 28.5 -86 28.5c-31.333 0 -60 -9.5 -86 -28.5s-51.333 -52.5 -76 -100.5z" />
    <glyph glyph-name="guillemotleft" unicode="&#xab;" horiz-adv-x="819" 
d="M88 477v78l281 330l51 -43l-252 -326l252 -330l-51 -39zM377 477v78l280 330l52 -43l-252 -326l252 -330l-52 -39z" />
    <glyph glyph-name="uni00AD" unicode="&#xad;" horiz-adv-x="612" 
d="M81 551h451v-80h-451v80z" />
    <glyph glyph-name="guillemotright" unicode="&#xbb;" horiz-adv-x="819" 
d="M360 516l-250 326l49 43l283 -330v-78l-283 -330l-49 39zM649 516l-250 326l49 43l283 -330v-78l-283 -330l-49 39z" />
    <glyph glyph-name="uni1780" unicode="&#x1780;" horiz-adv-x="1200" 
d="M1000 1200v-100h-800v100h800zM300 600v-600h-100v600c0 215.333 133.333 323 400 323s400 -107.667 400 -323v-600h-100v600c0 148.667 -100 223 -300 223s-300 -74.333 -300 -223z" />
    <glyph glyph-name="uni1781" unicode="&#x1781;" horiz-adv-x="1200" 
d="M200 759v137.999c0 202 133.333 303 400 303s400 -107.667 400 -323c0 -221.333 -233.333 -346 -700 -374v-180c0 -148.667 100 -223 300 -223s300 74.333 300 223v157h100v-157c0 -215.333 -133.333 -323 -400 -323s-400 107.667 -400 323v243
c466.667 40.667 700 144.334 700 311.001c0 148.667 -100 223 -300 223s-300 -67.667 -300 -203v-38h110v-100h-210z" />
    <glyph glyph-name="uni1782" unicode="&#x1782;" horiz-adv-x="1200" 
d="M1000 1200v-100h-800v100h800zM300 300c38 66.667 104.667 100 200 100h100v-100h-100c-58 0 -104.167 -18.167 -138.5 -54.5s-54.833 -89.5 -61.5 -159.5v-86h-100v600c0 215.333 133.333 323 400 323s400 -107.667 400 -323v-600h-100v600c0 148.667 -100 223 -300 223
s-300 -74.333 -300 -223v-300z" />
    <glyph glyph-name="uni1783" unicode="&#x1783;" horiz-adv-x="1900" 
d="M200 323l0.000976562 277c0 88.667 25 166.334 75 233.001s75 131 75 193c0 49.333 -21.333 74 -64 74c-63.333 0 -103 -48 -119 -144l-87 21c26.667 148.667 95.334 223 206.001 223c109.333 0 164 -58 164 -174c0 -89.333 -25 -166 -75 -230s-75 -129.333 -75 -196
v-277c0 -148.667 100 -223 300 -223s300 74.333 300 223v483c-94 102.667 -141 184 -141 244c0 100 50 150 150 150h199v-100h-199c-33.333 0 -50 -16.667 -50 -50c0 -47.333 47 -117.333 141 -210v-517c0 -148.667 100 -223 300 -223s300 74.333 300 223v483
c-144 105.333 -216 186.666 -216 243.999c0 100 50.667 150 152 150h164v-100h-164c-34.667 0 -52 -16.667 -52 -50c0 -40 72 -110 216 -210v-517c0 -215.333 -133.333 -323 -400 -323c-172.667 0 -289.334 45 -350.001 135c-60.667 -90 -177.334 -135 -350.001 -135
c-266.667 0 -400 107.667 -400 323z" />
    <glyph glyph-name="uni1784" unicode="&#x1784;" horiz-adv-x="1200" 
d="M884 860c77.333 -38.667 116 -95.333 116 -170v-690h-100l-300 300l-300 -300h-100v600h-100v100h200v-558l229 229c24 24 47.667 36 71 36c24 0 47.667 -12 71 -36l229 -229v548c0 50.667 -44.667 88 -134 112c-65.333 -18.667 -147.333 -28 -246 -28
c-213.333 0 -320 75.333 -320 226v400h100v-400c0 -84 73.333 -126 220 -126c220 0 330 44.333 330 133c0 62 -31.667 93 -95 93s-95 -37.667 -95 -113h-100c0 142 65 213 195 213s195 -64.333 195 -193c0 -60.667 -22 -109.667 -66 -147z" />
    <glyph glyph-name="uni1785" unicode="&#x1785;" horiz-adv-x="1200" 
d="M812 630v-100c-141.333 0 -212 61.667 -212 185s66.667 185 200 185s200 -63 200 -189v-388c0 -215.333 -133.333 -323 -400 -323s-400 107.667 -400 323v483c-80 89.333 -120 167.333 -120 234c0 106.667 50.333 160 151 160h769v-100h-769c-34 0 -51 -20 -51 -60
c0 -54 40 -120.667 120 -200v-517c0 -148.667 100 -223 300 -223s300 74.333 300 223v388c0 59.333 -33.333 89 -100 89s-100 -28.333 -100 -85s37.333 -85 112 -85z" />
    <glyph glyph-name="uni1786" unicode="&#x1786;" horiz-adv-x="1200" 
d="M300 303v-303h-100v303h-120v100h120v403c-80 89.333 -120 167.333 -120 234c0 106.667 50.333 160 151 160h769v-100h-769c-34 0 -51 -20 -51 -60c0 -54 40 -120.667 120 -200v-437h125c123.333 0 185 -60.333 185 -181c0 -81.333 48.333 -122 145 -122
s145 74.333 145 223v388c0 59.333 -33.333 89 -100 89s-100 -28.333 -100 -85s37.333 -85 112 -85v-100c-141.333 0 -212 61.667 -212 185s66.667 185 200 185s200 -63 200 -189v-388c0 -215.333 -81.667 -323 -245 -323s-245 74 -245 222c0 54 -28.333 81 -85 81h-125z" />
    <glyph glyph-name="uni1787" unicode="&#x1787;" horiz-adv-x="1200" 
d="M200 806c-80 89.333 -120 167.333 -120 234c0 106.667 50.333 160 151 160h569c66.667 0 100 26.667 100 80v120h100v-120c0 -120 -66.667 -180 -200 -180h-569c-34 0 -51 -20 -51 -60c0 -54 40 -120.667 120 -200v-698l229 229c24 24 47.667 36 71 36
c24 0 47.667 -12 71 -36l229 -229v781h100v-923h-100l-300 300l-300 -300h-100v806z" />
    <glyph glyph-name="uni1788" unicode="&#x1788;" horiz-adv-x="2600" 
d="M1700 323c0 -148.667 100.002 -222.998 300.002 -222.998s300 74.333 300 223v483c-144 105.333 -216 186.666 -216 243.999c0 100 50.667 150 152 150h164v-100h-164c-34.667 0 -52 -16.667 -52 -50c0 -40 72 -110 216 -210v-517c0 -215.333 -133.333 -323 -400 -323
c-172.667 0 -289.334 45 -350.001 135c-60.667 -90 -177.334 -135 -350.001 -135c-266.667 0 -400 107.667 -400 323v554c0 148.667 -100 223 -300 223s-300 -74.333 -300 -223v-688c0 -59.333 33.333 -89 100 -89s100 38.333 100 115s-37.333 115 -112 115v100
c141.333 0 212 -71.667 212 -215s-66.667 -215 -200 -215s-200 63 -200 189v688c0 215.333 133.333 323 400 323s400 -107.667 400 -323v-554c0 -148.667 100 -223 300 -223s300 74.333 300 223v483c-144 105.333 -216 186.666 -216 243.999c0 100 50.667 150 152 150h164
v-100h-164c-34.667 0 -52 -16.667 -52 -50c0 -40 72 -110 216 -210v-517z" />
    <glyph glyph-name="uni1789" unicode="&#x1789;" horiz-adv-x="1900" 
d="M1400 -100h300.001v-160c0 -160 -92.667 -240 -278 -240c-158 0 -290.5 36.667 -397.5 110s-248.5 110 -424.5 110h-400v100h400c198 0 352.667 -36.667 464 -110s230.666 -110 357.999 -110c118.667 0 178 46.667 178 140v60h-200v100zM900.001 937
c0 108.667 -38.3359 163 -115.003 163c-51.333 0 -88.666 -26.667 -111.999 -80c-23.333 -54 -47.666 -81 -72.999 -81s-49.666 27 -72.999 81c-23.333 53.333 -60.666 80 -111.999 80c-76.667 0 -115 -54.333 -115 -163v-748c0 -59.333 33.333 -89 100 -89
s100 38.333 100 115s-37.333 115 -112 115v100c141.333 0 212 -71.667 212 -215s-66.667 -215 -200 -215s-200 63 -200 189v748c0 175.333 71.667 263 215 263c80 0 141.667 -47.333 185 -142c43.333 94.667 105 142 185 142c102.667 0 168.667 -45 198 -135
c73.333 90 195.666 135 366.999 135c233.333 0 350 -94.333 350 -283v-917h-100v917c0 122 -83.333 183 -250 183c-233.333 0 -350 -104.333 -350 -313v-787h-100v937z" />
    <glyph glyph-name="uni178A" unicode="&#x178a;" horiz-adv-x="1200" 
d="M300 142l229 229c24 24 47.667 36 71 36c24 0 47.667 -12 71 -36l229 -229v638h100v-780h-100l-300 300l-300 -300h-100v780h100v-638zM900 1119v281h100v-281c0 -176.667 -133.333 -265 -400 -265s-400 61 -400 183c0 108.667 60 163 180 163s180 -61 180 -183h-100
c0 55.333 -26.667 83 -80 83s-80 -21 -80 -63c0 -55.333 100 -83 300 -83s300 55 300 165z" />
    <glyph glyph-name="uni178B" unicode="&#x178b;" horiz-adv-x="1200" 
d="M600 0c-266.667 0 -400.001 107.667 -400.001 323v277c0 88.667 25 166.334 75 233.001s75 131 75 193c0 49.333 -21.333 74 -64 74c-63.333 0 -103 -48 -119 -144l-87 21c26.667 148.667 95.334 223 206.001 223c109.333 0 164 -58 164 -174
c0 -89.333 -25 -166 -75 -230s-75 -129.333 -75 -196v-277c0 -148.667 100 -223 300 -223s300 74.333 300 223v483c-157.333 105.333 -236 186.666 -236 243.999c0 100 50.667 150 152 150h44c26.667 0 40 10 40 30v170h100v-170c0 -86.667 -46.667 -130 -140 -130h-44
c-34.667 0 -52 -16.667 -52 -50c0 -40 78.667 -110 236 -210v-517c0 -215.333 -133.333 -323 -400 -323z" />
    <glyph glyph-name="uni178C" unicode="&#x178c;" horiz-adv-x="1200" 
d="M200 759l0.000976562 177.999c0 175.333 71.667 263 215 263c80 0 141.667 -47.333 185 -142c43.333 94.667 105 142 185 142c143.333 0 215 -87.667 215 -263v-60c0 -221.333 -233.333 -346 -700 -374v-180c0 -148.667 66.667 -223 200 -223
c193.333 0 326.666 101 399.999 303v77h100v-480h-100v208c-98.667 -138.667 -232 -208 -400 -208c-200 0 -300 107.667 -300 323v243c466.667 40.667 700 144.334 700 311.001v60c0 108.667 -38.333 163 -115 163c-58 0 -103.667 -53.667 -137 -161
c-11.333 -43.333 -27.333 -65 -48 -65s-36.667 21.667 -48 65c-33.333 107.333 -79 161 -137 161c-76.667 0 -115 -54.333 -115 -163v-78h110v-100h-210z" />
    <glyph glyph-name="uni178D" unicode="&#x178d;" horiz-adv-x="1900" 
d="M300 189c0 -59.333 33.3291 -88.999 99.9961 -88.999s100 38.333 100 115s-37.333 115 -112 115v100c141.333 0 212 -71.667 212 -215s-66.667 -215 -200 -215s-200 63 -200 189v748c0 175.333 71.667 263 215 263c80 0 141.667 -47.333 185 -142
c43.333 94.667 105 142 185 142c143.333 0 215 -87.667 215 -263v-534h125c123.333 0 185 -60.333 185 -181c0 -81.333 48.333 -122 145 -122s145 74.333 145 223v483c-144 105.333 -216 186.666 -216 243.999c0 100 50.667 150 152 150h164v-100h-164
c-34.667 0 -52 -16.667 -52 -50c0 -40 72 -110 216 -210v-517c0 -215.333 -81.667 -323 -245 -323s-245 74 -245 222c0 54 -28.333 81 -85 81h-125v-303h-100v303h-120v100h120v534c0 108.667 -38.333 163 -115 163c-51.333 0 -88.666 -26.667 -111.999 -80
c-23.333 -54 -47.666 -81 -72.999 -81s-49.666 27 -72.999 81c-23.333 53.333 -60.666 80 -111.999 80c-76.667 0 -115 -54.333 -115 -163v-748z" />
    <glyph glyph-name="uni178E" unicode="&#x178e;" horiz-adv-x="2600" 
d="M900 877c0 148.667 -100 223 -300 223s-300 -74.333 -300 -223v-688c0 -59.333 33.333 -89 100 -89s100 38.333 100 115s-37.333 115 -112 115v100c141.333 0 212 -71.667 212 -215s-66.667 -215 -200 -215s-200 63 -200 189v688c0 215.333 133.333 323 400 323
s400 -107.667 400 -323v-735l229 229c24 24 47.667 36 71 36c24 0 47.667 -12 71 -36l229 -229v735c0 215.333 133.333 323 400 323s400 -107.667 400 -323v-877h-100v877c0 148.667 -100 223 -300 223s-300 -74.333 -300 -223v-877h-100l-300 300l-300 -300h-100v877z" />
    <glyph glyph-name="uni178F" unicode="&#x178f;" horiz-adv-x="1200" 
d="M1000 1200v-100h-800v100h800zM200 600c0 215.333 133.333 323 400 323s400 -107.667 400 -323v-600h-100v600c0 148.667 -100 223 -300 223s-300 -74.333 -300 -223v-411c0 -59.333 33.333 -89 100 -89s100 38.333 100 115s-37.333 115 -112 115v100
c141.333 0 212 -71.667 212 -215s-66.667 -215 -200 -215s-200 63 -200 189v411z" />
    <glyph glyph-name="uni1790" unicode="&#x1790;" horiz-adv-x="1200" 
d="M800 1200c66.667 0 100 26.667 100 80v120h100v-120c0 -120 -66.667 -180 -200 -180h-569c-34 0 -51 -20 -51 -60c0 -54 40 -120.667 120 -200v-517c0 -148.667 100 -223 300 -223s300 74.333 300 223v388c0 59.333 -33.333 89 -100 89s-100 -28.333 -100 -85
s37.333 -85 112 -85v-100c-141.333 0 -212 61.667 -212 185s66.667 185 200 185s200 -63 200 -189v-388c0 -215.333 -133.333 -323 -400 -323s-400 107.667 -400 323v483c-80 89.333 -120 167.333 -120 234c0 106.667 50.333 160 151 160h569z" />
    <glyph glyph-name="uni1791" unicode="&#x1791;" horiz-adv-x="1200" 
d="M899 939c-12 107.333 -111.667 161.001 -299 161.001c-200 0 -300 -74.333 -300 -223c0 -188.667 126.667 -283 380 -283c146.667 0 220 31 220 93h100c0 -50.667 -16.667 -91.334 -50 -122.001v-272c0 -195.333 -113.333 -293 -340 -293s-340 97.667 -340 293v157h100
v-157c0 -128.667 80 -193 240 -193s240 64.333 240 193v220c-46 -12.667 -102.667 -19 -170 -19c-320 0 -480 127.667 -480 383c0 215.333 133.333 323 400 323s400 -94.333 400 -283v-78h-200v100h99z" />
    <glyph glyph-name="uni1792" unicode="&#x1792;" horiz-adv-x="1200" 
d="M200 806c-80 89.333 -120 167.333 -120 234c0 106.667 50.333 160 151 160h769v-100h-769c-34 0 -51 -20 -51 -60c0 -54 40 -120.667 120 -200v-698l229 229c24 24 47.667 36 71 36c24 0 47.667 -12 71 -36l229 -229v569c0 59.333 -33.333 89 -100 89
s-100 -28.333 -100 -85s37.333 -85 112 -85v-100c-141.333 0 -212 61.667 -212 185s66.667 185 200 185s200 -63 200 -189v-711h-100l-300 300l-300 -300h-100v806z" />
    <glyph glyph-name="uni1793" unicode="&#x1793;" horiz-adv-x="1200" 
d="M300 877c0 -120 148 -207.001 444 -261.001c170.667 -33.333 256 -117.666 256 -252.999v-150c0 -142 -70 -213 -210 -213c-100 -0 -172.667 43.333 -218 130s-136 130 -272 130v-260h-100v504l100 -1v-153c157.333 0 260.833 -41.667 310.5 -125s109.5 -125 179.5 -125
c73.333 0 110 34.333 110 103v160c0 86.667 -58.667 142 -176 166c-349.333 70.667 -524 186.667 -524 348c0 215.333 133.333 323 400 323s400 -101 400 -303v-138h-210v100h110v38c0 135.333 -100 203 -300 203s-300 -74.333 -300 -223z" />
    <glyph glyph-name="uni1794" unicode="&#x1794;" horiz-adv-x="1200" 
d="M900 806c-144 105.333 -216 186.667 -216 244c0 100 50.667 150 152 150h164v-100h-164c-34.667 0 -52 -16.667 -52 -50c0 -40 72 -110 216 -210v-517c0 -215.333 -133.333 -323 -400 -323s-400 107.667 -400 323v483c-93.333 102.667 -140 184 -140 244
c0 100 50 150 150 150h198v-100h-198c-33.333 0 -50 -16.667 -50 -50c0 -47.333 46.667 -117.333 140 -210v-517c0 -148.667 100 -223 300 -223s300 74.333 300 223v483z" />
    <glyph glyph-name="uni1795" unicode="&#x1795;" horiz-adv-x="1200" 
d="M200 806c-80 89.333 -120 167.333 -120 234c0 106.667 50.333 160 151 160h569c66.667 0 100 26.667 100 80v120h100v-120c0 -120 -66.667 -180 -200 -180h-569c-34 0 -51 -20 -51 -60c0 -54 40 -120.667 120 -200v-698l229 229c24 24 47.667 36 71 36
c24 0 47.667 -12 71 -36l229 -229v569c0 59.333 -33.333 89 -100 89s-100 -28.333 -100 -85s37.333 -85 112 -85v-100c-141.333 0 -212 61.667 -212 185s66.667 185 200 185s200 -63 200 -189v-711h-100l-300 300l-300 -300h-100v806z" />
    <glyph glyph-name="uni1796" unicode="&#x1796;" horiz-adv-x="1200" 
d="M1000 0h-100.004v937c0 108.667 -38.333 163 -115 163c-51.333 0 -88.666 -26.667 -111.999 -80c-23.333 -54 -47.666 -81 -72.999 -81s-49.666 27 -72.999 81c-23.333 53.333 -60.666 80 -111.999 80c-76.667 0 -115 -54.333 -115 -163v-748
c0 -59.333 33.333 -89 100 -89s100 38.333 100 115s-37.333 115 -112 115v100c141.333 0 212 -71.667 212 -215s-66.667 -215 -200 -215s-200 63 -200 189v748c0 175.333 71.667 263 215 263c80 0 141.667 -47.333 185 -142c43.333 94.667 105 142 185 142
c143.333 0 215 -87.667 215 -263v-937z" />
    <glyph glyph-name="uni1797" unicode="&#x1797;" horiz-adv-x="1200" 
d="M1000 1200v-100h-800v100h800zM200 600c0 215.333 133.334 323.001 400.001 323.001s400 -107.667 400 -323v-600h-100v600c0 148.667 -100 223 -300 223s-300 -74.333 -300 -223v-40c0 -66.667 25 -125.334 75 -176.001s75 -120.667 75 -210
c0 -116 -54.667 -174 -164 -174c-110.667 -0 -179.334 74.333 -206.001 223l87 21c16 -96 55.667 -144 119 -144c42.667 0 64 24.667 64 74c0 62 -25 119.667 -75 173s-75 124.333 -75 213v40z" />
    <glyph glyph-name="uni1798" unicode="&#x1798;" horiz-adv-x="1200" 
d="M900 550l-560 0.000976562v100h560v156c-144 105.333 -216 186.666 -216 243.999c0 100 50.667 150 152 150h164v-100h-164c-34.667 0 -52 -16.667 -52 -50c0 -40 72 -110 216 -210v-517c0 -215.333 -133.333 -323 -400 -323s-400 107.667 -400 323v483
c-93.333 102.667 -140 184 -140 244c0 100 50 150 150 150h198v-100h-198c-33.333 0 -50 -16.667 -50 -50c0 -47.333 46.667 -117.333 140 -210v-517c0 -148.667 100 -223 300 -223s300 74.333 300 223v227z" />
    <glyph glyph-name="uni1799" unicode="&#x1799;" horiz-adv-x="1900" 
d="M300 323c0 -148.667 100.002 -222.999 300.002 -222.999s300 74.333 300 223v483c-94 102.667 -141 184 -141 244c0 100 50 150 150 150h199v-100h-199c-33.333 0 -50 -16.667 -50 -50c0 -47.333 47 -117.333 141 -210v-517c0 -148.667 100 -223 300 -223
s300 74.333 300 223v483c-144 105.333 -216 186.666 -216 243.999c0 100 50.667 150 152 150h164v-100h-164c-34.667 0 -52 -16.667 -52 -50c0 -40 72 -110 216 -210v-517c0 -215.333 -133.333 -323 -400 -323c-172.667 0 -289.334 45 -350.001 135
c-60.667 -90 -177.334 -135 -350.001 -135c-266.667 0 -400 107.667 -400 323v688c0 126 63.333 189 190 189c120 0 180 -68.333 180 -205s-70.667 -205 -212 -205v100c74.667 0 112 35 112 105s-26.667 105 -80 105c-60 0 -90 -29.667 -90 -89v-688z" />
    <glyph glyph-name="uni179A" unicode="&#x179a;" horiz-adv-x="600" 
d="M400 189c0 -126 -56.667 -188.999 -170 -188.999s-170 71.667 -170 215s60.667 215 182 215v-100c-54.667 0 -82 -38.333 -82 -115s23.333 -115 70 -115s70 29.667 70 89v617c-157.333 105.333 -236 186.666 -236 243.999c0 100 50.667 150 152 150h184v-100h-184
c-34.667 0 -52 -16.667 -52 -50c0 -40 78.667 -110 236 -210v-651z" />
    <glyph glyph-name="uni179B" unicode="&#x179b;" horiz-adv-x="1900" 
d="M1700 323c0 -215.333 -133.333 -322.999 -400 -322.999s-400 107.667 -400 323v554c0 148.667 -100 223 -300 223s-300 -74.333 -300 -223v-688c0 -59.333 33.333 -89 100 -89s100 38.333 100 115s-37.333 115 -112 115v100c141.333 0 212 -71.667 212 -215
s-66.667 -215 -200 -215s-200 63 -200 189v688c0 215.333 133.333 323 400 323s400 -107.667 400 -323v-554c0 -148.667 100 -223 300 -223s300 74.333 300 223v483c-144 105.333 -216 186.666 -216 243.999c0 100 50.667 150 152 150h164v-100h-164
c-34.667 0 -52 -16.667 -52 -50c0 -40 72 -110 216 -210v-517z" />
    <glyph glyph-name="uni179C" unicode="&#x179c;" horiz-adv-x="600" 
d="M320 1200c33.333 0 50 13.334 50 40.001v160h100v-160c0 -93.333 -50 -140 -150 -140h-104c-34.667 0 -52 -16.667 -52 -50c0 -40 78.667 -110 236 -210v-651c0 -126 -56.667 -189 -170 -189s-170 71.667 -170 215s60.667 215 182 215v-100
c-54.667 0 -82 -38.333 -82 -115s23.333 -115 70 -115s70 29.667 70 89v617c-157.333 105.333 -236 186.666 -236 243.999c0 100 50.667 150 152 150h104z" />
    <glyph glyph-name="uni179D" unicode="&#x179d;" horiz-adv-x="1200" 
d="M1000 1200v-100h-800v100h800zM900 400v200c0 148.667 -100 223 -300 223s-300 -74.333 -300 -223v-300c38 66.667 104.667 100 200 100h100v-100h-100c-58 0 -104.167 -18.167 -138.5 -54.5s-54.833 -89.5 -61.5 -159.5v-86h-100v600c0 215.333 133.333 323 400 323
s400 -107.667 400 -323v-200h150v-100h-150v-300h-100v300h-210v100h210z" />
    <glyph glyph-name="uni179E" unicode="&#x179e;" horiz-adv-x="1200" 
d="M900 650v156.001c-144 105.333 -216 186.666 -216 243.999c0 100 50.667 150 152 150h164v-100h-164c-34.667 0 -52 -16.667 -52 -50c0 -40 72 -110 216 -210v-190h100v-100h-100v-227c0 -215.333 -133.333 -323 -400 -323s-400 107.667 -400 323v483
c-93.333 102.667 -140 184 -140 244c0 100 50 150 150 150h198v-100h-198c-33.333 0 -50 -16.667 -50 -50c0 -47.333 46.667 -117.333 140 -210v-517c0 -148.667 100 -223 300 -223s300 74.333 300 223v227h-260v100h260z" />
    <glyph glyph-name="uni179F" unicode="&#x179f;" horiz-adv-x="1900" 
d="M480 891c36.667 6 76.667 9.00098 120 9.00098c266.667 0 400 -107.667 400 -323v-254c0 -148.667 100 -223 300 -223s300 74.333 300 223v483c-144 105.333 -216 186.666 -216 243.999c0 100 50.667 150 152 150h164v-100h-164c-34.667 0 -52 -16.667 -52 -50
c0 -40 72 -110 216 -210v-517c0 -215.333 -133.333 -323 -400 -323s-400 107.667 -400 323v254c0 148.667 -100 223 -300 223s-300 -74.333 -300 -223v-388c0 -59.333 33.333 -89 100 -89s100 38.333 100 115s-37.333 115 -112 115v100c141.333 0 212 -71.667 212 -215
s-66.667 -215 -200 -215s-200 63 -200 189v388c0 144 59.667 240 179 288c-72.667 75.333 -109 137 -109 185c0 100 50 150 150 150h438v-100h-438c-33.333 0 -50 -16.667 -50 -50c0 -38 36.667 -91 110 -159z" />
    <glyph glyph-name="uni17A0" unicode="&#x17a0;" horiz-adv-x="1900" 
d="M1000 323c0 -215.333 -133.333 -323 -400 -323s-400 107.667 -400 323v483c-93.333 102.667 -140 184 -140 244c0 100 50 150 150 150h198v-100h-198c-33.333 0 -50 -16.667 -50 -50c0 -47.333 46.667 -117.333 140 -210v-517c0 -148.667 100 -223 300 -223
s300 74.333 300 223v554c0 215.333 133.333 323 400 323s400 -107.667 400 -323v-877h-100v877c0 148.667 -100 223 -300 223s-300 -74.333 -300 -223v-554z" />
    <glyph glyph-name="uni17A1" unicode="&#x17a1;" horiz-adv-x="1800" 
d="M899 939c-12 107.333 -111.667 161.001 -299 161.001c-200 0 -300 -74.333 -300 -223c0 -188.667 126.667 -283 380 -283c146.667 0 220 31 220 93h100c0 -50.667 -16.667 -91.334 -50 -122.001v-272c0 -195.333 -113.333 -293 -340 -293s-340 97.667 -340 293v157h100
v-157c0 -128.667 80 -193 240 -193s240 64.333 240 193v220c-46 -12.667 -102.667 -19 -170 -19c-320 0 -480 127.667 -480 383c0 215.333 133.333 323 400 323s400 -94.333 400 -283v-78h-200v100h99zM1500 806.001c-157.333 105.333 -236.002 186.667 -236.002 244
c0 100 50.667 150 152 150h184v-100h-184c-34.667 0 -52 -16.667 -52 -50c0 -40 78.667 -110 236 -210v-1340h-100l-275 275l-275 -275h-100v351h-100v100h200v-309l220 219c20.667 20.667 39.334 31 56.001 31s35.334 -10.333 56.001 -31l218 -219v1164z" />
    <glyph glyph-name="uni17A2" unicode="&#x17a2;" horiz-adv-x="1200" 
d="M199 806c-92.667 102.667 -139 184 -139 244c0 100 49.667 150 149 150h198v-100h-198c-33.333 0 -50 -16.667 -50 -50c0 -47.333 46.667 -117.333 140 -210v-698c0 -94.667 -56.667 -142 -170 -142h-69v100h69c46.667 0 70 14 70 42v664zM900 650v156.001
c-144 105.333 -216 186.666 -216 243.999c0 100 50.667 150 152 150h164v-100h-164c-34.667 0 -52 -16.667 -52 -50c0 -40 72 -110 216 -210v-698c0 -94.667 -56.667 -142 -170 -142h-146v100h146c46.667 0 70 14 70 42v408h-560v100h560z" />
    <glyph glyph-name="uni17A3" unicode="&#x17a3;" horiz-adv-x="1201" 
d="M199 806c-92.667 102.667 -139 184 -139 244c0 100 49.667 150 149 150h198v-100h-198c-33.333 0 -50 -16.667 -50 -50c0 -47.333 46.667 -117.333 140 -210v-698c0 -94.667 -56.667 -142 -170 -142h-69v100h69c46.667 0 70 14 70 42v664zM901 650v156.001
c-144 105.333 -216 186.666 -216 243.999c0 100 50.667 150 152 150h164v-100h-164c-34.667 0 -52 -16.667 -52 -50c0 -40 72 -110 216 -210v-698c0 -94.667 -56.667 -142 -170 -142h-146v100h146c46.667 0 70 14 70 42v408h-560v100h560z" />
    <glyph glyph-name="uni17A4" unicode="&#x17a4;" horiz-adv-x="1700" 
d="M199 806c-92.667 102.667 -139 184 -139 244c0 100 49.667 150 149 150h198v-100h-198c-33.333 0 -50 -16.667 -50 -50c0 -47.333 46.667 -117.333 140 -210v-698c0 -94.667 -56.667 -142 -170 -142h-69v100h69c46.667 0 70 14 70 42v664zM1268 1200
c154.667 0 232 -87.666 232 -262.999v-937h-100v937c0 108.667 -44 163 -132 163h-431c-34.667 0 -52 -16.667 -52 -50c0 -40 72 -110 216 -210v-698c0 -94.667 -56.667 -142 -170 -142h-146v100h146c46.667 0 70 14 70 42v408h-560v100h560v156
c-144 105.333 -216 186.666 -216 243.999c0 100 50.667 150 152 150h431z" />
    <glyph glyph-name="uni17A5" unicode="&#x17a5;" horiz-adv-x="1200" 
d="M310 850c66.667 48.667 163.333 73 290 73c266.667 0 400 -107.667 400 -323v-600h-100v600c0 148.667 -100 223 -300 223s-300 -74.333 -300 -223v-411c0 -59.333 33.333 -89 100 -89s100 38.333 100 115s-37.333 115 -112 115v100c141.333 0 212 -71.667 212 -215
s-66.667 -215 -200 -215s-200 63 -200 189v411c0 72 15 132 45 180c-96.667 107.333 -145 194 -145 260c0 106.667 50.333 160 151 160h549c66.667 0 100 26.667 100 80v120h100v-120c0 -120 -66.667 -180 -200 -180h-549c-34 0 -51 -20 -51 -60
c0 -52 36.667 -115.333 110 -190z" />
    <glyph glyph-name="uni17A6" unicode="&#x17a6;" horiz-adv-x="1800" 
d="M900 877c0 148.667 -100 223 -300 223s-300 -74.333 -300 -223v-688c0 -59.333 33.333 -89 100 -89s100 38.333 100 115s-37.333 115 -112 115v100c141.333 0 212 -71.667 212 -215s-66.667 -215 -200 -215s-200 63 -200 189v688c0 215.333 133.333 323 400 323
s400 -107.667 400 -323v-877h-100v877zM900 1800h100v-350c84 66.667 184 100 300 100c200 0 300 -98.667 300 -296v-1538c0 -144 -125 -216 -375 -216s-375 72 -375 216v18c0 84 -83.333 126 -250 126s-250 -42 -250 -126v-82c0 -41.333 28.333 -62 85 -62s85 18 85 54
s-34 54 -102 54v90c134.667 0 202 -48 202 -144s-61.667 -144 -185 -144s-185 50.667 -185 152v82c0 144 116.667 216 350 216s350 -72 350 -216v-18c0 -84 91.667 -126 275 -126s275 42 275 126v1538c0 130.667 -66.667 196 -200 196c-140 0 -240 -43.333 -300 -130
l-100 44v436z" />
    <glyph glyph-name="uni17A7" unicode="&#x17a7;" horiz-adv-x="1200" 
d="M200 323l0.000976562 242.999c466.667 40.667 700 144.334 700 311.001c0 148.667 -100 223 -300 223s-300 -67.667 -300 -203v-38h110v-100h-210v138c0 202 133.333 303 400 303s400 -107.667 400 -323c0 -221.333 -233.333 -346 -700 -374v-180
c0 -148.667 66.667 -223 200 -223c193.333 0 326.666 101 399.999 303v77h100v-480h-100v208c-98.667 -138.667 -232 -208 -400 -208c-200 0 -300 107.667 -300 323z" />
    <glyph glyph-name="uni17A8" unicode="&#x17a8;" horiz-adv-x="1200" 
d="M1000 1462v-100h-800v100h800zM200 323l0.000976562 242.999c466.667 40.667 700 144.334 700 311.001c0 148.667 -100 223 -300 223s-300 -67.667 -300 -203v-38h110v-100h-210v138c0 202 133.333 303 400 303s400 -107.667 400 -323
c0 -221.333 -233.333 -346 -700 -374v-180c0 -148.667 66.667 -223 200 -223c193.333 0 326.666 101 399.999 303v77h100v-480h-100v208c-98.667 -138.667 -232 -208 -400 -208c-200 0 -300 107.667 -300 323z" />
    <glyph glyph-name="uni17A9" unicode="&#x17a9;" horiz-adv-x="1200" 
d="M200 323l0.000976562 242.999c466.667 40.667 700 144.334 700 311.001c0 148.667 -100 223 -300 223s-300 -67.667 -300 -203v-38h110v-100h-210v138c0 202 133.333 303 400 303s400 -107.667 400 -323c0 -221.333 -233.333 -346 -700 -374v-180
c0 -148.667 66.667 -223 200 -223c193.333 0 326.666 101 399.999 303v77h100v-480h-100v208c-98.667 -138.667 -232 -208 -400 -208c-200 0 -300 107.667 -300 323zM1200 479.999v-480h-100v480h100z" />
    <glyph glyph-name="uni17AA" unicode="&#x17aa;" horiz-adv-x="1200" 
d="M323 1140c66 40 158.334 59.999 277.001 59.999c266.667 0 400 -107.667 400 -323c0 -221.333 -233.333 -346 -700 -374v-180c0 -148.667 66.667 -223 200 -223c193.333 0 326.666 101 399.999 303v77h100v-480h-100v208c-98.667 -138.667 -232 -208 -400 -208
c-200 0 -300 107.667 -300 323v243c466.667 40.667 700 144.334 700 311.001c0 148.667 -100 223 -300 223s-300 -67.667 -300 -203v-38h110v-100h-210v138c0 74 18 134.333 54 181c-69.333 85.333 -104 156 -104 212c0 106.667 50.333 160 151 160h499
c66.667 0 100 26.667 100 80v120h100v-120c0 -120 -66.667 -180 -200 -180h-499c-34 0 -51 -20 -51 -60c0 -42.667 24.333 -92.667 73 -150z" />
    <glyph glyph-name="uni17AB" unicode="&#x17ab;" horiz-adv-x="1200" 
d="M100 -400h400c266.667 0 400 76.667 400 230h-100v100h200v-100c0 -220 -166.667 -330 -500 -330h-400v100zM900 806c-144 105.333 -216 186.667 -216 244c0 100 50.667 150 152 150h164v-100h-164c-34.667 0 -52 -16.667 -52 -50c0 -40 72 -110 216 -210v-517
c0 -215.333 -133.333 -323 -400 -323s-400 107.667 -400 323v483c-93.333 102.667 -140 184 -140 244c0 100 50 150 150 150h198v-100h-198c-33.333 0 -50 -16.667 -50 -50c0 -47.333 46.667 -117.333 140 -210v-517c0 -148.667 100 -223 300 -223s300 74.333 300 223v483z
" />
    <glyph glyph-name="uni17AC" unicode="&#x17ac;" horiz-adv-x="1200" 
d="M900 806c-144 105.333 -216 186.667 -216 244c0 100 50.667 150 152 150h164v-100h-164c-34.667 0 -52 -16.667 -52 -50c0 -40 72 -110 216 -210v-517c0 -215.333 -133.333 -323 -400 -323s-400 107.667 -400 323v483c-93.333 102.667 -140 184 -140 244
c0 100 50 150 150 150h198v-100h-198c-33.333 0 -50 -16.667 -50 -50c0 -47.333 46.667 -117.333 140 -210v-517c0 -148.667 100 -223 300 -223s300 74.333 300 223v483zM980 -289.999c20 -73.333 63.333 -110 130 -110h40v-100h-40c-97.333 0 -162.333 38 -195 114
c-80.667 -76 -219 -114 -415 -114h-400v100h400c266.667 0 400 76.667 400 230h-100v100h200v-100c0 -44.667 -6.66699 -84.667 -20 -120z" />
    <glyph glyph-name="uni17AD" unicode="&#x17ad;" horiz-adv-x="1200" 
d="M1000 0h-100.004v937c0 108.667 -38.333 163 -115 163c-51.333 0 -88.666 -26.667 -111.999 -80c-23.333 -54 -47.666 -81 -72.999 -81s-49.666 27 -72.999 81c-23.333 53.333 -60.666 80 -111.999 80c-76.667 0 -115 -54.333 -115 -163v-748
c0 -59.333 33.333 -89 100 -89s100 38.333 100 115s-37.333 115 -112 115v100c141.333 0 212 -71.667 212 -215s-66.667 -215 -200 -215s-200 63 -200 189v748c0 175.333 71.667 263 215 263c80 0 141.667 -47.333 185 -142c43.333 94.667 105 142 185 142
c143.333 0 215 -87.667 215 -263v-937zM199.996 -400h300c266.667 0 400 76.667 400 230h-100v100h200v-100c0 -220 -166.667 -330 -500 -330h-300v100z" />
    <glyph glyph-name="uni17AE" unicode="&#x17ae;" horiz-adv-x="1200" 
d="M1000 0h-100.004v937c0 108.667 -38.333 163 -115 163c-51.333 0 -88.666 -26.667 -111.999 -80c-23.333 -54 -47.666 -81 -72.999 -81s-49.666 27 -72.999 81c-23.333 53.333 -60.666 80 -111.999 80c-76.667 0 -115 -54.333 -115 -163v-748
c0 -59.333 33.333 -89 100 -89s100 38.333 100 115s-37.333 115 -112 115v100c141.333 0 212 -71.667 212 -215s-66.667 -215 -200 -215s-200 63 -200 189v748c0 175.333 71.667 263 215 263c80 0 141.667 -47.333 185 -142c43.333 94.667 105 142 185 142
c143.333 0 215 -87.667 215 -263v-937zM979.996 -290c20 -73.333 63.333 -110 130 -110h40v-100h-40c-97.333 0 -162.333 38 -195 114c-80.667 -76 -219 -114 -415 -114h-300v100h300c266.667 0 400 76.667 400 230h-100v100h200v-100c0 -44.667 -6.66699 -84.667 -20 -120z
" />
    <glyph glyph-name="uni17AF" unicode="&#x17af;" horiz-adv-x="1200" 
d="M900 897c0 135.333 -66.667 203 -200 203h-220c-186.667 0 -280 72 -280 216v224h100v-224c0 -77.333 60 -116 180 -116h220c200 0 300 -101 300 -303v-897h-100l-300 300l-300 -300h-100v830h-100v100h200v-788l229 229c24 24 47.667 36 71 36c24 0 47.667 -12 71 -36
l229 -229v755z" />
    <glyph glyph-name="uni17B0" unicode="&#x17b0;" horiz-adv-x="1200" 
d="M700 -176c36.667 -82.667 79.333 -124 128 -124c48 0 72 55 72 165zM299.999 -276v-30c0 -62.667 43 -94 129 -94c114 0 171 26.333 171 79v116zM999.999 -105c0 -151.333 -37.3369 -238 -112.004 -260c-25.333 -8 -49 -12 -71 -12c-42.667 0 -81.667 14.333 -117 43
c0 -50.667 -20.667 -91 -62 -121s-112 -45 -212 -45c-150.667 0 -226 63.333 -226 190v91l700 169v987c0 108.667 -38.333 163 -115 163c-51.333 0 -88.666 -26.667 -111.999 -80c-23.333 -54 -47.666 -81 -72.999 -81s-49.666 27 -72.999 81
c-23.333 53.333 -60.666 80 -111.999 80c-76.667 0 -115 -54.333 -115 -163v-748c0 -59.333 33.333 -89 100 -89s100 38.333 100 115s-37.333 115 -112 115v100c141.333 0 212 -71.667 212 -215s-66.667 -215 -200 -215s-200 63 -200 189v748c0 175.333 71.667 263 215 263
c80 0 141.667 -47.333 185 -142c43.333 94.667 105 142 185 142c143.333 0 215 -87.667 215 -263v-1042z" />
    <glyph glyph-name="uni17B1" unicode="&#x17b1;" horiz-adv-x="1200" 
d="M305 1128c66.667 48 165.001 72 295.001 72c266.667 0 400 -107.667 400 -323c0 -221.333 -233.333 -346 -700 -374v-180c0 -148.667 66.667 -223 200 -223c193.333 0 326.666 101 399.999 303v77h100v-480h-100v208c-98.667 -138.667 -232 -208 -400 -208
c-200 0 -300 107.667 -300 323v243c466.667 40.667 700 144.334 700 311.001c0 148.667 -100 223 -300 223s-300 -67.667 -300 -203v-38h110v-100h-210v138c0 69.333 15.667 126.666 47 171.999c-64.667 42.667 -97 103 -97 181c0 133.333 67 200 201 200h469
c166.667 0 260 -83.333 280 -250l-80 -20c-33.333 113.333 -100 170 -200 170h-469c-67.333 0 -101 -33.333 -101 -100c0 -50 18.333 -90.667 55 -122z" />
    <glyph glyph-name="uni17B2" unicode="&#x17b2;" horiz-adv-x="1200" 
d="M833 424c-40 -34.667 -87 -72.333 -141 -113l-66 67c182.667 128 274 215.333 274 262c0 33.333 -17.333 50 -52 50h-254v100h254c101.333 0 152 -50 152 -150c0 -34.667 -30 -82.667 -90 -144c60 -51.333 90 -109 90 -173c0 -215.333 -133.333 -323 -400 -323
s-400 107.667 -400 323v554c0 215.333 133.333 323 400 323s400 -107.667 400 -323h-100c0 148.667 -100 223 -300 223s-300 -74.333 -300 -223v-554c0 -148.667 100 -223 300 -223s300 74.333 300 223c0 32 -22.333 65.667 -67 101z" />
    <glyph glyph-name="uni17B3" unicode="&#x17b3;" horiz-adv-x="1200" 
d="M896 1337c28 -58.667 65.332 -98.999 111.999 -120.999c-25.333 61.333 -62.666 101.666 -111.999 120.999zM779.999 1350h-429.001c-67.333 0 -101 -33.333 -101 -100c0 -50 18.333 -90.667 55 -122c66.667 48 165 72 295 72c266.667 0 400 -107.667 400 -323
c0 -221.333 -233.333 -346 -700 -374v-180c0 -148.667 66.667 -223 200 -223c193.333 0 326.666 101 399.999 303v77h100v-480h-100v208c-98.667 -138.667 -232 -208 -400 -208c-200 0 -300 107.667 -300 323v243c466.667 40.667 700 144.334 700 311.001
c0 148.667 -100 223 -300 223s-300 -67.667 -300 -203v-38h110v-100h-210v138c0 69.333 15.667 126.666 47 171.999c-64.667 42.667 -97 103 -97 181c0 133.333 67 200 201 200h403c-16 80.667 -24 177 -24 289h100c0 -115.333 9.33301 -212.333 28 -291
c142.667 -12 223.334 -94.667 242.001 -248c-11.333 -42 -43.666 -64.333 -96.999 -67c-104.667 14 -179 86.333 -223 217z" />
    <glyph glyph-name="uni17B4" unicode="&#x17b4;" horiz-adv-x="500" 
d="M68 1200c154.667 0 232 -87.667 232 -263v-937h-100v937c0 108.667 -44 163 -132 163h-268v100h268z" />
    <glyph glyph-name="uni17B5" unicode="&#x17b5;" horiz-adv-x="500" 
d="M68 1200c154.667 0 232 -87.667 232 -263v-937h-100v937c0 108.667 -44 163 -132 163h-268v100h268z" />
    <glyph glyph-name="uni17B6" unicode="&#x17b6;" horiz-adv-x="500" 
d="M68 1200c154.667 0 232 -87.667 232 -263v-937h-100v937c0 108.667 -44 163 -132 163h-268v100h268z" />
    <glyph glyph-name="uni17B7" unicode="&#x17b7;" 
d="M-1000 1550c0 166.667 86.667 250.001 260 250.001c99.333 0 195.833 -28.333 289.5 -85s177.167 -128.334 250.5 -215.001v-100h-650c-100 0 -150 50 -150 150zM-900 1550c0 -33.333 16.668 -50 50.001 -50h508c-74.667 73.333 -146.334 125 -215.001 155
s-129.667 45 -183 45c-106.667 0 -160 -50 -160 -150z" />
    <glyph glyph-name="uni17B8" unicode="&#x17b8;" 
d="M-900 1550c0 -33.333 16.668 -50 50.001 -50h508c-74.667 73.333 -146.334 125 -215.001 155s-129.667 45 -183 45c-106.667 0 -160 -50 -160 -150zM-299.999 1603v247h100v-450h-650c-100 0 -150 50 -150 150c0 166.667 86.667 250 260 250
c99.333 0 196 -28.333 290 -85c53.333 -32.667 103.333 -70 150 -112z" />
    <glyph glyph-name="uni17B9" unicode="&#x17b9;" 
d="M-570 1771c4 12 9.33301 23.665 16 34.998c17.333 30 41 53.167 71 69.5s61 24.5 93 24.5s63 -8.16699 93 -24.5s53.667 -39.666 71 -69.999s26 -62.166 26 -95.499s-8.33301 -65 -25 -95c-10 -18 -22.667 -33.667 -38 -47c22 -21.333 43 -44 63 -68v-100h-650
c-100 0 -150 50 -150 150c0 166.667 86.667 250 260 250c58 0 114.667 -9.66699 170 -29zM-478 1731l27.999 -16c39.333 -24 76.666 -50.333 111.999 -79c11.333 7.33301 20.333 17 27 29c7.33301 14.667 11 29.667 11 45s-4 30.333 -12 45s-19.167 25.834 -33.5 33.501
s-29.166 11.5 -44.499 11.5s-30.166 -3.83301 -44.499 -11.5s-25.5 -18.834 -33.5 -33.501c-4.66699 -8 -8 -16 -10 -24zM-900.001 1550c0 -33.333 16.668 -50 50.001 -50h508c-74.667 73.333 -146.334 125 -215.001 155s-129.667 45 -183 45c-106.667 0 -160 -50 -160 -150
z" />
    <glyph glyph-name="uni17BA" unicode="&#x17ba;" 
d="M-900 1550c0 -33.333 16.668 -50 50.001 -50h508c-74.667 73.333 -146.334 125 -215.001 155s-129.667 45 -183 45c-106.667 0 -160 -50 -160 -150zM-399.999 1682c34.667 -24 68 -50.333 100 -79v247h100v-450h-650c-100 0 -150 50 -150 150
c0 166.667 86.667 250 260 250c82 0 162 -19.333 240 -58v158h100v-218z" />
    <glyph glyph-name="uni17BB" unicode="&#x17bb;" 
d="M-200 -70v-430h-100v330h-100v100h200z" />
    <glyph glyph-name="uni17BC" unicode="&#x17bc;" 
d="M-650 -170h-100v100h200v-220c0 -73.333 41.667 -110 125 -110s125 36.667 125 110v220h100v-220c0 -140 -75 -210 -225 -210s-225 70 -225 210v120z" />
    <glyph glyph-name="uni17BD" unicode="&#x17bd;" 
d="M-570 -370l135 140l135 -140v300h100v-430h-102l-133 150l-135 -150h-100v330h-100v100h200v-300z" />
    <glyph glyph-name="uni17BE" unicode="&#x17be;" 
d="M-900 1550c0 -33.333 16.668 -50 50.001 -50h508c-74.667 73.333 -146.334 125 -215.001 155s-129.667 45 -183 45c-106.667 0 -160 -50 -160 -150zM-299.999 1603v247h100v-450h-650c-100 0 -150 50 -150 150c0 166.667 86.667 250 260 250
c99.333 0 196 -28.333 290 -85c53.333 -32.667 103.333 -70 150 -112z" />
    <glyph glyph-name="uni17BF" unicode="&#x17bf;" horiz-adv-x="500" 
d="M150 1475c100 -40 150 -128.333 150 -265v-1470c0 -160 -100 -240 -300 -240s-300 80 -300 240v190h160v-100h-60v-90c0 -93.333 66.667 -140 200 -140s200 46.667 200 140v1470c0 126.667 -66.667 190 -200 190h-500c-100 0 -150 50 -150 150
c0 166.667 86.667 250 260 250c82 0 162 -19.333 240 -58v158h100v-218c34.667 -24 68 -50.333 100 -79v247h100v-375zM-550 1550c0 -33.333 16.668 -50 50.001 -50h508c-74.667 73.333 -146.334 125 -215.001 155s-129.667 45 -183 45c-106.667 0 -160 -50 -160 -150z" />
    <glyph glyph-name="uni17C0" unicode="&#x17c0;" horiz-adv-x="500" 
d="M300 -260c0 -160 -100 -240 -300 -240s-300 80 -300 240v190h160v-100h-60v-90c0 -93.333 66.667 -140 200 -140s200 46.667 200 140v1570c0 126.667 -66.667 190 -200 190c-106.667 0 -176.667 -33.333 -210 -100h-90v500h100v-358c63.333 38.667 130 58 200 58
c200 0 300 -96.667 300 -290v-1570z" />
    <glyph glyph-name="uni17C1" unicode="&#x17c1;" horiz-adv-x="560" 
d="M300 189c0 -59.333 18.333 -89 55 -89c30 0 45 38.333 45 115s-20.667 115 -62 115v100c108 0 162 -71.667 162 -215s-48.333 -215 -145 -215c-103.333 0 -155 63 -155 189v617c-93.333 102.667 -140 184 -140 244c0 100 50 150 150 150h248v-100h-248
c-33.333 0 -50 -16.667 -50 -50c0 -47.333 46.667 -117.333 140 -210v-651z" />
    <glyph glyph-name="uni17C2" unicode="&#x17c2;" horiz-adv-x="560" 
d="M300 189c0 -59.333 18.333 -89 55 -89c30 0 45 38.333 45 115s-20.667 115 -62 115v100c108 0 162 -71.667 162 -215s-48.333 -215 -145 -215c-103.333 0 -155 63 -155 189v617c-93.333 102.667 -140 184 -140 244c0 100 50 150 150 150h248v-100h-248
c-33.333 0 -50 -16.667 -50 -50c0 -47.333 46.667 -117.333 140 -210v-651zM40 1490c0 120 79 180 237 180v-100c-91.333 0 -137 -26.667 -137 -80c0 -60 43.667 -90 131 -90c112.667 0 169 116.667 169 350h100c0 -300 -89.667 -450 -269 -450c-154 0 -231 63.333 -231 190
z" />
    <glyph glyph-name="uni17C3" unicode="&#x17c3;" horiz-adv-x="560" 
d="M300 189c0 -59.333 18.333 -89 55 -89c30 0 45 38.333 45 115s-20.667 115 -62 115v100c108 0 162 -71.667 162 -215s-48.333 -215 -145 -215c-103.333 0 -155 63 -155 189v617c-93.333 102.667 -140 184 -140 244c0 100 50 150 150 150h248v-100h-248
c-33.333 0 -50 -16.667 -50 -50c0 -47.333 46.667 -117.333 140 -210v-651zM430 1505c0 63.333 -40.001 95 -120.001 95c-53.333 0 -90 -23.333 -110 -70h-100v220c0 33.333 -26.667 50 -80 50v100c120 0 180 -50 180 -150v-80c36.667 20 73.334 30 110.001 30
c146.667 0 220 -65 220 -195c0 -136.667 -76.667 -205 -230 -205h-250v100h250c86.667 0 130 35 130 105z" />
    <glyph glyph-name="uni17C4" unicode="&#x17c4;" horiz-adv-x="500" 
d="M68 1200c154.667 0 232 -87.667 232 -263v-937h-100v937c0 108.667 -44 163 -132 163h-268v100h268z" />
    <glyph glyph-name="uni17C5" unicode="&#x17c5;" horiz-adv-x="500" 
d="M68 1200c154.667 0 232 -87.667 232 -263v-937h-100v937c0 108.667 -44 163 -132 163h-268v100h268zM200 1550c0 66.667 -33.333 100 -100 100h-100v100h100c133.333 0 200 -66.667 200 -200v-331h-100v331z" />
    <glyph glyph-name="uni17C6" unicode="&#x17c6;" 
d="M-644.5 1663.5c-14.333 -7.66699 -25.502 -18.834 -33.502 -33.501s-12 -29.667 -12 -45s4 -30.333 12 -45s19.167 -25.834 33.5 -33.501s29.166 -11.5 44.499 -11.5s30.333 3.83301 45 11.5s25.834 18.834 33.501 33.501s11.5 29.667 11.5 45s-4 30.333 -12 45
s-19.167 25.834 -33.5 33.501s-29.166 11.5 -44.499 11.5s-30.166 -3.83301 -44.499 -11.5zM-600.002 1775c32 0 63 -8.16699 93 -24.5s53.667 -39.666 71 -69.999s26 -62.166 26 -95.499s-8.33301 -65 -25 -95s-40 -53.333 -70 -70s-61.667 -25 -95 -25
c-32.667 0 -64 8.33301 -94 25s-53.5 40 -70.5 70s-25.5 61.667 -25.5 95s8.66699 65.166 26 95.499s41 53.666 71 69.999s61 24.5 93 24.5z" />
    <glyph glyph-name="uni17C7" unicode="&#x17c7;" horiz-adv-x="780" 
d="M345.5 303.5c-14.333 -7.66699 -25.502 -18.834 -33.502 -33.501s-12 -29.667 -12 -45s4 -30.333 12 -45s19.167 -25.834 33.5 -33.501s29.166 -11.5 44.499 -11.5s30.333 3.83301 45 11.5s25.834 18.834 33.501 33.501s11.5 29.667 11.5 45s-4 30.333 -12 45
s-19.167 25.834 -33.5 33.501s-29.166 11.5 -44.499 11.5s-30.166 -3.83301 -44.499 -11.5zM389.998 415c32 0 63 -8.16699 93 -24.5s53.667 -39.666 71 -69.999s26 -62.166 26 -95.499s-8.33301 -65 -25 -95s-40 -53.333 -70 -70s-61.667 -25 -95 -25
c-32.667 0 -64 8.33301 -94 25s-53.5 40 -70.5 70s-25.5 61.667 -25.5 95s8.66699 65.166 26 95.499s41 53.666 71 69.999s61 24.5 93 24.5zM345.498 1053.5c-14.333 -7.66699 -25.502 -18.834 -33.502 -33.501s-12 -29.667 -12 -45s4 -30.333 12 -45
s19.167 -25.834 33.5 -33.501s29.166 -11.5 44.499 -11.5s30.333 3.83301 45 11.5s25.834 18.834 33.501 33.501s11.5 29.667 11.5 45s-4 30.333 -12 45s-19.167 25.834 -33.5 33.501s-29.166 11.5 -44.499 11.5s-30.166 -3.83301 -44.499 -11.5zM389.996 1165
c32 0 63 -8.16699 93 -24.5s53.667 -39.666 71 -69.999s26 -62.166 26 -95.499s-8.33301 -65 -25 -95s-40 -53.333 -70 -70s-61.667 -25 -95 -25c-32.667 0 -64 8.33301 -94 25s-53.5 40 -70.5 70s-25.5 61.667 -25.5 95s8.66699 65.166 26 95.499s41 53.666 71 69.999
s61 24.5 93 24.5z" />
    <glyph glyph-name="uni17C8" unicode="&#x17c8;" horiz-adv-x="530" 
d="M255 290c13.333 0 25.832 -3.16699 37.499 -9.5s20.834 -15.5 27.501 -27.5s10 -24.667 10 -38c0 -12.667 -3.16699 -25 -9.5 -37s-15.5 -21.333 -27.5 -28s-24.667 -10 -38 -10c-12.667 0 -25 3.33301 -37 10s-21.333 16 -28 28s-10 24.333 -10 37
c0 13.333 3.33301 26 10 38s16 21.167 28 27.5s24.333 9.5 37 9.5zM254.999 1040c13.333 0 25.832 -3.16699 37.499 -9.5s20.834 -15.5 27.501 -27.5s10 -24.667 10 -38c0 -12.667 -3.16699 -25 -9.5 -37s-15.5 -21.333 -27.5 -28s-24.667 -10 -38 -10
c-12.667 0 -25 3.33301 -37 10s-21.333 16 -28 28s-10 24.333 -10 37c0 13.333 3.33301 26 10 38s16 21.167 28 27.5s24.333 9.5 37 9.5z" />
    <glyph glyph-name="uni17C9" unicode="&#x17c9;" 
d="M-780 1400v400h100v-400h-100zM-520 1400v400h100v-400h-100z" />
    <glyph glyph-name="uni17CA" unicode="&#x17ca;" 
d="M-1000 1340v100h332l68 -90l69 90h331v-100h-800z" />
    <glyph glyph-name="uni17CB" unicode="&#x17cb;" 
d="M-650 1400v400h100v-400h-100z" />
    <glyph glyph-name="uni17CC" unicode="&#x17cc;" 
d="M-863 1409l-62.001 86.999c103.333 56 190.5 116 261.5 180s120.167 140.667 147.5 230l81 -39c-29.333 -77.333 -53.166 -129.333 -71.499 -156s-44.5 -56.667 -78.5 -90c16.667 2.66699 33.667 4 51 4c37.333 0 76.333 -9.33301 117 -28s88 -60.667 142 -126l-65 -71
c-54 66.667 -102.333 107.834 -145 123.501s-82 23.5 -118 23.5c-46 0 -91.5 -14 -136.5 -42s-86.167 -60 -123.5 -96z" />
    <glyph glyph-name="uni17CD" unicode="&#x17cd;" 
d="M-805 1575c0 -50 37.667 -75 113 -75h65v-100h-65c-142 0 -213 58.333 -213 175s79 175 237 175h222c140.667 0 211 50 211 150h100c0 -166.667 -103.667 -250 -311 -250h-222c-91.333 0 -137 -25 -137 -75z" />
    <glyph glyph-name="uni17CE" unicode="&#x17ce;" 
d="M-550 1700h225v-100h-225v-200h-100v200h-225v100h225v199h100v-199z" />
    <glyph glyph-name="uni17CF" unicode="&#x17cf;" 
d="M-750 1800h300c100 0 150 33.333 150 100h100c0 -133.333 -83.333 -200 -250 -200h-300c-100 0 -150 -32.667 -150 -98v-107l300 132l300 -133v118h100v-212h-90l-311 133l-297 -133l-1 1v-1h-101v202c0 132 83.333 198 250 198z" />
    <glyph glyph-name="uni17D0" unicode="&#x17d0;" 
d="M-700 1600c0 133.333 89 200 267 200h44v-100h-47c-109.333 0 -164 -33.333 -164 -100c0 -80 80.333 -120 241 -120c239.333 0 359 106.667 359 320h100c0 -266.667 -153 -400 -459 -400c-227.333 0 -341 66.667 -341 200z" />
    <glyph glyph-name="uni17D1" unicode="&#x17d1;" 
d="M-1050 1300v100h800v-100h-800z" />
    <glyph glyph-name="uni17D2" unicode="&#x17d2;" 
d="M-625 -264h200v-72h-200v-164h-100v164h-200v72h200v164h100v-164z" />
    <glyph glyph-name="uni17D3" unicode="&#x17d3;" 
d="M-755 1651.5c-34.667 -10.333 -61.834 -24.833 -81.501 -43.5s-29.5 -38 -29.5 -58s9.83301 -39.333 29.5 -58s46.834 -33.167 81.501 -43.5s70 -15.5 106 -15.5c38 0 74.333 5.16699 109 15.5s61.334 24.833 80.001 43.5s28 38 28 58s-9.83301 39.333 -29.5 58
s-46.334 33.167 -80.001 43.5s-69.5 15.5 -107.5 15.5c-36 0 -71.333 -5.16699 -106 -15.5zM-650 1800c68 0 133.667 -10.667 197 -32s113 -52.166 149 -92.499s54 -82.166 54 -125.499s-17.333 -84.833 -52 -124.5s-84 -70.5 -148 -92.5s-130.667 -33 -200 -33
c-68 0 -133.667 11 -197 33s-113 52.833 -149 92.5s-54 81.167 -54 124.5s18 85.166 54 125.499s86 71.166 150 92.499s129.333 32 196 32z" />
    <glyph glyph-name="uni17D4" unicode="&#x17d4;" horiz-adv-x="1100" 
d="M300 1000c0 -66.667 55.333 -100 166 -100c118 0 229.333 100 334 300h100v-1200h-100v996c-84.667 -130.667 -196 -196 -334 -196c-177.333 0 -266 66.667 -266 200s80.667 200 242 200h53v-100h-53c-94.667 0 -142 -33.333 -142 -100z" />
    <glyph glyph-name="uni17D5" unicode="&#x17d5;" horiz-adv-x="1400" 
d="M1200 1200v-1200h-100v1200h100zM300 1000c0 -66.667 55.333 -100 166 -100c118 0 229.333 100 334 300h100v-1200h-100v996c-84.667 -130.667 -196 -196 -334 -196c-177.333 0 -266 66.667 -266 200s80.667 200 242 200h53v-100h-53c-94.667 0 -142 -33.333 -142 -100z
" />
    <glyph glyph-name="uni17D6" unicode="&#x17d6;" horiz-adv-x="780" 
d="M680 650v-100h-580v100h580zM345.5 303.5c-14.333 -7.66699 -25.502 -18.834 -33.502 -33.501s-12 -29.667 -12 -45s4 -30.333 12 -45s19.167 -25.834 33.5 -33.501s29.166 -11.5 44.499 -11.5s30.333 3.83301 45 11.5s25.834 18.834 33.501 33.501s11.5 29.667 11.5 45
s-4 30.333 -12 45s-19.167 25.834 -33.5 33.501s-29.166 11.5 -44.499 11.5s-30.166 -3.83301 -44.499 -11.5zM389.998 415c32 0 63 -8.16699 93 -24.5s53.667 -39.666 71 -69.999s26 -62.166 26 -95.499s-8.33301 -65 -25 -95s-40 -53.333 -70 -70s-61.667 -25 -95 -25
c-32.667 0 -64 8.33301 -94 25s-53.5 40 -70.5 70s-25.5 61.667 -25.5 95s8.66699 65.166 26 95.499s41 53.666 71 69.999s61 24.5 93 24.5zM345.498 1053.5c-14.333 -7.66699 -25.502 -18.834 -33.502 -33.501s-12 -29.667 -12 -45s4 -30.333 12 -45
s19.167 -25.834 33.5 -33.501s29.166 -11.5 44.499 -11.5s30.333 3.83301 45 11.5s25.834 18.834 33.501 33.501s11.5 29.667 11.5 45s-4 30.333 -12 45s-19.167 25.834 -33.5 33.501s-29.166 11.5 -44.499 11.5s-30.166 -3.83301 -44.499 -11.5zM389.996 1165
c32 0 63 -8.16699 93 -24.5s53.667 -39.666 71 -69.999s26 -62.166 26 -95.499s-8.33301 -65 -25 -95s-40 -53.333 -70 -70s-61.667 -25 -95 -25c-32.667 0 -64 8.33301 -94 25s-53.5 40 -70.5 70s-25.5 61.667 -25.5 95s8.66699 65.166 26 95.499s41 53.666 71 69.999
s61 24.5 93 24.5z" />
    <glyph glyph-name="uni17D7" unicode="&#x17d7;" horiz-adv-x="1150" 
d="M850 1033c-60.667 -88.667 -118.999 -133 -174.999 -133c-42.667 0 -80.834 33.333 -114.501 100s-73.5 100 -119.5 100c-94 0 -141 -42.333 -141 -127c0 -69.333 62.667 -104 188 -104v-100c-192 0 -288 68 -288 204c0 151.333 75 227 225 227
c76 0 134.833 -33.333 176.5 -100s68.167 -100 79.5 -100c46 0 102.333 66.667 169 200h100v-1280c0 -213.333 -116.667 -320 -350 -320v100c166.667 0 250 73.333 250 220v1113z" />
    <glyph glyph-name="uni17D8" unicode="&#x17d8;" horiz-adv-x="4100" 
d="M300 1000c0 -66.667 55.333 -100 166 -100c118 0 229.333 100 334 300h100v-1200h-100v996c-84.667 -130.667 -196 -196 -334 -196c-177.333 0 -266 66.667 -266 200s80.667 200 242 200h53v-100h-53c-94.667 0 -142 -33.333 -142 -100zM2800 323
c0 -215.333 -133.333 -322.999 -400 -322.999s-400 107.667 -400 323v554c0 148.667 -100 223 -300 223s-300 -74.333 -300 -223v-688c0 -59.333 33.333 -89 100 -89s100 38.333 100 115s-37.333 115 -112 115v100c141.333 0 212 -71.667 212 -215s-66.667 -215 -200 -215
s-200 63 -200 189v688c0 215.333 133.333 323 400 323s400 -107.667 400 -323v-554c0 -148.667 100 -223 300 -223s300 74.333 300 223v483c-144 105.333 -216 186.666 -216 243.999c0 100 50.667 150 152 150h164v-100h-164c-34.667 0 -52 -16.667 -52 -50
c0 -40 72 -110 216 -210v-517zM3300 1000c0 -66.667 55.333 -100 166 -100c118 0 229.333 100 334 300h100v-1200h-100v996c-84.667 -130.667 -196 -196 -334 -196c-177.333 0 -266 66.667 -266 200s80.667 200 242 200h53v-100h-53c-94.667 0 -142 -33.333 -142 -100z" />
    <glyph glyph-name="uni17D9" unicode="&#x17d9;" horiz-adv-x="1500" 
d="M750 0c-366.667 0 -550 200 -550 600s183.333 600 550 600s550 -200 550 -600s-183.333 -600 -550 -600zM750 1100c-274.667 0 -412 -166.667 -412 -500s137.333 -500 412 -500c275.333 0 413 166.667 413 500s-137.667 500 -413 500zM750 200
c-183.333 0 -275 133.333 -275 400s91.667 400 275 400s275 -133.333 275 -400s-91.667 -400 -275 -400zM750 900c-91.333 0 -137 -100 -137 -300s45.667 -300 137 -300c92 0 138 100 138 300s-46 300 -138 300z" />
    <glyph glyph-name="uni17DA" unicode="&#x17da;" horiz-adv-x="2900" 
d="M575 1200c252.667 0 379 -109.666 379 -328.999c0 -144 -104.333 -216 -313 -216c-42 0 -63 18 -63 54s21 54 63 54c123.333 0 185 36.667 185 110c0 145.333 -82.667 218 -248 218c-168.667 0 -253 -72.667 -253 -218v-546c0 -147.333 84.333 -221 253 -221
c83.333 0 166.833 40.167 250.5 120.5s167.167 204.166 250.5 371.499l246 489h126l313 -795l186 686h125l188 -570l126 245h250c40.667 0 61 -18.333 61 -55s-20.333 -55 -61 -55h-188l-125 -325h-126l-187 545l-187 -654h-125l-313 845l-209 -411
c-184 -362 -385.333 -543 -604 -543c-250 0 -375 109 -375 327v546c0 218 125 327 375 327z" />
    <glyph glyph-name="uni17DB" unicode="&#x17db;" horiz-adv-x="600" 
d="M400 550v-360.999c0 -126 -56.667 -189 -170 -189s-170 71.667 -170 215s60.667 215 182 215v-100c-54.667 0 -82 -38.333 -82 -115s23.333 -115 70 -115s70 29.667 70 89v361h-250v100h250v156c-157.333 105.333 -236 186.666 -236 243.999c0 100 50.667 150 152 150
h184v-100h-184c-34.667 0 -52 -16.667 -52 -50c0 -40 78.667 -110 236 -210v-190h150v-100h-150z" />
    <glyph glyph-name="uni17DC" unicode="&#x17dc;" horiz-adv-x="1550" 
d="M420 1022c0 -88 29.666 -154.004 88.999 -198.004c58.667 -44 147.334 -66 266.001 -66c158 0 276.667 -31.333 356 -94c79.333 -63.333 119 -158.333 119 -285c0 -126 -39.667 -220.667 -119 -284s-198 -95 -356 -95s-276.667 24.333 -356 73s-119 122 -119 220
c0 58 15 101.667 45 131c30 28.667 74.667 43.334 134 44.001c20 0 35 -5 45 -15s15 -25 15 -45c0 -19.333 -5 -33.666 -15 -42.999c-10 -10 -25 -15 -45 -15c-19.333 0 -34 -5 -44 -15c-10 -9.33301 -15 -23.666 -15 -42.999c0 -58 29.667 -101.667 89 -131
c58.667 -28.667 147.334 -43 266.001 -43s207.667 21.667 267 65c59.333 44 89 109.667 89 197c0 88 -29.667 153.667 -89 197c-59.333 44 -148.333 66 -267 66c-158 0 -276.667 31.667 -356 95c-78.667 62.667 -118.334 157.334 -119.001 284.001
c0 126 39.667 220.667 119 284c79.333 62.667 198 94 356 94s276.667 -24.333 356 -73c79.333 -48 119 -120.333 119 -217c0 -58.667 -15 -102.667 -45 -132c-29.333 -29.333 -73.666 -44 -132.999 -44c-20 0 -35 5 -45 15s-15 24.667 -15 44s5 34 15 44
c10 9.33301 25 14 45 14s34.667 5 44 15c10 9.33301 15 24 15 44c0 58 -29.667 101.667 -89 131c-59.333 28.667 -148.333 43 -267 43s-207.334 -21.667 -266.001 -65c-59.333 -44 -89 -109.667 -89 -197z" />
    <glyph glyph-name="uni17DD" unicode="&#x17dd;" 
d="M-250 1500h-129.002c0 35.333 -18.333 62 -55 80c-37.333 18 -92.666 27 -165.999 27c-74 0 -129.667 -9 -167 -27s-56 -44.667 -56 -80h-127c0 59.333 29.333 104 88 134c58 29.333 145.333 44 262 44s204.334 -14.667 263.001 -44c58 -30 87 -74.667 87 -134z" />
    <glyph glyph-name="uni17E0" unicode="&#x17e0;" horiz-adv-x="1200" 
d="M600 100c200 0 300 93.333 300 280v440c0 186.667 -100 280 -300 280s-300 -93.333 -300 -280v-440c0 -186.667 100 -280 300 -280zM200 820c0 253.333 133.333 380 400 380s400 -126.667 400 -380v-440c0 -253.333 -133.333 -380 -400 -380s-400 126.667 -400 380v440z
" />
    <glyph glyph-name="uni17E1" unicode="&#x17e1;" horiz-adv-x="1200" 
d="M900 320v560c0 146.667 -100 220 -300 220s-300 -73.333 -300 -220v-120c0 -93.333 71.667 -140 215 -140h135v-100h-135c-210 0 -315 80 -315 240v120c0 213.333 133.333 320 400 320s400 -106.667 400 -320v-560c0 -213.333 -133.333 -320 -400 -320
s-400 106.667 -400 320h100c0 -146.667 100 -220 300 -220s300 73.333 300 220z" />
    <glyph glyph-name="uni17E2" unicode="&#x17e2;" horiz-adv-x="1390" 
d="M1190 400c0 -266.667 -165 -400 -495 -400s-495 133.333 -495 400v950h-100v100h100c66.667 0 100 -33.333 100 -100v-950c0 -200 131.667 -300 395 -300s395 100 395 300v682l-260 -224l-240 224v-382h90v-100h-190v600h100l240 -224l260 224h100v-800z" />
    <glyph glyph-name="uni17E3" unicode="&#x17e3;" horiz-adv-x="1588" 
d="M844 0h-100.001v840c0 173.333 -81.333 260 -244 260c-133.333 0 -200 -86.667 -200 -260v-740h100v-100h-200v850c0 233.333 100 350 300 350c132.667 0 230.334 -46.333 293.001 -139c62.667 92.667 161 139 295 139c200 0 300 -120 300 -360v-840h-100v840
c0 173.333 -66.667 260 -200 260c-162.667 0 -244 -86.667 -244 -260v-840z" />
    <glyph glyph-name="uni17E4" unicode="&#x17e4;" horiz-adv-x="1300" 
d="M710 468l300 -330l-50 -138h-400c-240 -0 -360 133.333 -360 400v950h-100v110h100c66.667 0 100 -33.333 100 -100v-960c0 -200 86.667 -300 260 -300h360l-310 348v316c0 116 61.333 174 184 174c117.333 0 189.333 -74.333 216 -223l-87 -21c-16 96 -59 144 -129 144
c-56 0 -84 -24.667 -84 -74v-296z" />
    <glyph glyph-name="uni17E5" unicode="&#x17e5;" horiz-adv-x="1210" 
d="M400 1200c0 -46.667 23.333 -70 70 -70s70 23.333 70 70s-23.333 70 -70 70s-70 -23.333 -70 -70zM300 400c0 -200 86.667 -299.998 260 -299.998h360l-310 288v236c0 116 61.333 174 184 174c117.333 0 189.333 -74.333 216 -223l-87 -21c-16 96 -59 144 -129 144
c-56 0 -84 -24.667 -84 -74v-216l300 -270l-50 -138h-400c-240 0 -360 133.333 -360 400v490c0 98 51.667 168 155 210c-36.667 34.667 -55 68 -55 100c0 113.333 56.667 170 170 170s170 -56.667 170 -170c0 -32 -16.667 -64 -50 -96c66.667 -32.667 126.667 -49 180 -49
c93.333 0 140 51.333 140 154v361h100v-361c0 -169.333 -80 -254 -240 -254c-90.667 0 -190 39.667 -298 119c-24 -12.667 -58.667 -33.334 -104 -62.001s-68 -69.334 -68 -122.001v-490z" />
    <glyph glyph-name="uni17E6" unicode="&#x17e6;" horiz-adv-x="1200" 
d="M200 1550h100v-494c77.333 96 177.333 144 300 144c266.667 0 400 -133.333 400 -400v-400c0 -266.667 -133.333 -400 -400 -400s-400 116.667 -400 350s116.667 350 350 350h150v-100h-150c-166.667 0 -250 -83.333 -250 -250s100 -250 300 -250s300 100 300 300v400
c0 200 -100 300 -300 300c-200 -25.333 -300 -105.333 -300 -240h-100v690z" />
    <glyph glyph-name="uni17E7" unicode="&#x17e7;" horiz-adv-x="1462" 
d="M1081 100c54 0 80.9961 26 80.9961 78v1322h100v-1322c0 -118.667 -60.333 -178 -181 -178s-181 59.333 -181 178v759c0 108.667 -38.333 163 -115 163c-51.333 0 -88.666 -26.667 -111.999 -80c-23.333 -54 -47.666 -81 -72.999 -81s-49.666 27 -72.999 81
c-23.333 53.333 -60.666 80 -111.999 80c-76.667 0 -115 -54.333 -115 -163v-748c0 -59.333 33.333 -89 100 -89s100 38.333 100 115s-37.333 115 -112 115v100c141.333 0 212 -71.667 212 -215s-66.667 -215 -200 -215s-200 63 -200 189v748c0 175.333 71.667 263 215 263
c80 0 141.667 -47.333 185 -142c43.333 94.667 105 142 185 142c143.333 0 215 -87.667 215 -263v-759c0 -52 27 -78 81 -78z" />
    <glyph glyph-name="uni17E8" unicode="&#x17e8;" horiz-adv-x="1200" 
d="M899 117v403c0 86.667 -17.333 130 -52 130h-180v100h180c101.333 0 152 -76.667 152 -230v-520h-110l-288 230l-290 -230h-111v880c0 213.333 133.333 320 400 320c141.333 0 241.333 -31.333 300 -94v444h100v-670h-100c0 146.667 -100 220 -300 220
s-300 -73.333 -300 -220v-764l301 239z" />
    <glyph glyph-name="uni17E9" unicode="&#x17e9;" horiz-adv-x="1200" 
d="M900 1510h100v-568h-100c0 105.333 -100 158 -300 158s-300 -66 -300 -198c0 -94.667 70 -142 210 -142h428v-100h-428c-140 0 -210 -44.667 -210 -134v-226c0 -133.333 100 -200 300 -200s300 66 300 198c0 85.333 -50 128 -150 128h-100v100h100
c166.667 0 250 -77.667 250 -233c0 -195.333 -133.333 -293 -400 -293s-400 100 -400 300v226c6 97.333 52 160.333 138 189c-86 16 -132 78.333 -138 187c0 198.667 133.333 298 400 298c122.667 0 222.667 -26 300 -78v388z" />
    <glyph glyph-name="uni17F0" unicode="&#x17f0;" horiz-adv-x="800" 
d="M550 350c0 166.667 -50 250 -150 250s-150 -83.333 -150 -250s50 -250 150 -250s150 83.333 150 250zM150 350c0 233.333 83.333 350 250 350s250 -116.667 250 -350s-83.333 -350 -250 -350s-250 116.667 -250 350z" />
    <glyph glyph-name="uni17F1" unicode="&#x17f1;" horiz-adv-x="800" 
d="M459 700l242 -700h-105l-196 565l-195 -565h-104l239 700h119z" />
    <glyph glyph-name="uni17F2" unicode="&#x17f2;" horiz-adv-x="300" 
d="M200 700v-700h-100v700h100z" />
    <glyph glyph-name="uni17F3" unicode="&#x17f3;" horiz-adv-x="1296" 
d="M458 700l189 -549l188 549h119l242 -700h-105l-196 565l-195 -565h-105l-196 565l-195 -565h-104l239 700h119z" />
    <glyph glyph-name="uni17F4" unicode="&#x17f4;" horiz-adv-x="800" 
d="M342 0l-242 700h105l196 -565l195 565h104l-239 -700h-119z" />
    <glyph glyph-name="uni17F5" unicode="&#x17f5;" horiz-adv-x="800" 
d="M201 201c0 84.667 41.667 175.667 125 273l-226 226h151l149 -149l150 150h151l-227 -227c84.667 -97.333 127 -188.333 127 -273c0 -133.333 -66.667 -200 -200 -200s-200 66.667 -200 200zM500 200c0.666992 54.667 -32.667 120.332 -100 196.999
c-66 -76.667 -99 -142 -99 -196c0 -67.333 33.333 -100.666 100 -99.999c66.667 0 99.667 33 99 99z" />
    <glyph glyph-name="uni17F6" unicode="&#x17f6;" horiz-adv-x="550" 
d="M209 700l241 -700h-106l-244 700h109z" />
    <glyph glyph-name="uni17F7" unicode="&#x17f7;" horiz-adv-x="1050" 
d="M458 700l189 -549l188 549h115l-250 -700h-105l-196 565l-195 -565h-104l239 700h119z" />
    <glyph glyph-name="uni17F8" unicode="&#x17f8;" horiz-adv-x="502" 
d="M449 700l-245 -700h-104l239 700h110z" />
    <glyph glyph-name="uni17F9" unicode="&#x17f9;" horiz-adv-x="900" 
d="M100 112l584 456.001l34 -99l-471 -369l303 1c200.667 0 301 -75 301 -225c-0.666992 -150.667 -101 -226.334 -301 -227.001l-50 1v100l51 -1c133.333 0 200 42 200 126c0 83.333 -66.667 125 -200 125h-412z" />
    <glyph glyph-name="uni19E0" unicode="&#x19e0;" horiz-adv-x="1300" 
d="M650 915c174.667 0 262 82.333 262 247v450c0 164.667 -87.333 247 -262 247s-262 -82.333 -262 -247v-450c0 -164.667 87.333 -247 262 -247zM912 864c-68.667 -32 -155.999 -48.001 -261.999 -48.001c-300 0 -450 125 -450 375v434c0 250 150 375 450 375
s450 -125 450 -375v-434c0 -87.333 -18.333 -159.666 -55 -216.999h55v-661h-188c0 120 -87.333 180 -262 180s-262 -60 -262 -180v-704l263 236l261 -235v348c0 52.667 -17.333 79 -52 79h-180v148h180c160 0 240 -75.667 240 -227v-513h-218l-231 207l-232 -207h-219v868
c0 210.667 150 316 450 316c89.333 0 176.666 -17.667 261.999 -53v288z" />
    <glyph glyph-name="uni19E1" unicode="&#x19e1;" horiz-adv-x="1300" 
d="M912 1132v552c0 120 -87.333 180 -262 180s-262 -60 -262 -180v-118c0 -52.667 42.333 -79 127 -79h135v-158h-135c-210 0 -315 79 -315 237v118c0 210.667 150 316 450 316s450 -105.333 450 -316v-552c0 -210.667 -150 -316 -450 -316s-450 105.333 -450 316h188
c0 -120 87.333 -180 262 -180s262 60 262 180zM388 451c0 -54 26 -81 78 -81c118 0 205.333 43.333 262 130l84 129h188v-1184h-188v933c-72.667 -96 -188 -144 -346 -144c-177.333 0 -266 72.333 -266 217c0 118.667 80.667 178 242 178h53v-136h-53c-36 0 -54 -14 -54 -42
z" />
    <glyph glyph-name="uni19E2" unicode="&#x19e2;" horiz-adv-x="1538" 
d="M1338 1200c0 -266.667 -189.667 -400 -569 -400s-569 133.333 -569 400v810h-100v150h100c125.333 0 188 -50 188 -150v-810c0 -174.667 127 -262 381 -262s381 87.333 381 262v542l-210 -174l-200 174v-192h50v-150h-248v510h198l200 -174l210 174h188v-710zM388 451
c0 -54 26 -81 78 -81c118 0 205.333 43.333 262 130l84 129h188v-1184h-188v933c-72.667 -96 -188 -144 -346 -144c-177.333 0 -266 72.333 -266 217c0 118.667 80.667 178 242 178h53v-136h-53c-36 0 -54 -14 -54 -42z" />
    <glyph glyph-name="uni19E3" unicode="&#x19e3;" horiz-adv-x="1764" 
d="M976 800h-188.001v840c0 148 -66.667 222 -200 222s-200 -74 -200 -222v-702h100v-138h-288v850c0 233.333 129.333 350 388 350c132.667 0 230.334 -29.667 293.001 -89c62.667 59.333 161 89 295 89c258.667 0 388 -120 388 -360v-840h-188v840
c0 148 -66.667 222 -200 222s-200 -74 -200 -222v-840zM387.999 451c0 -54 26 -81 78 -81c118 0 205.333 43.333 262 130l84 129h188v-1184h-188v933c-72.667 -96 -188 -144 -346 -144c-177.333 0 -266 72.333 -266 217c0 118.667 80.667 178 242 178h53v-136h-53
c-36 0 -54 -14 -54 -42z" />
    <glyph glyph-name="uni19E4" unicode="&#x19e4;" horiz-adv-x="1300" 
d="M650 938h320l-270 310v352c0 50 16.667 85.5 50 106.5s83.333 31.5 150 31.5h200v-138h-212v-302l212 -360l-50 -138h-400c-300 0 -450 133.333 -450 400v800h-100v160h100c125.333 0 188 -50 188 -150v-810c0 -174.667 87.333 -262 262 -262zM388 451
c0 -54 26 -81 78 -81c118 0 205.333 43.333 262 130l84 129h188v-1184h-188v933c-72.667 -96 -188 -144 -346 -144c-177.333 0 -266 72.333 -266 217c0 118.667 80.667 178 242 178h53v-136h-53c-36 0 -54 -14 -54 -42z" />
    <glyph glyph-name="uni19E5" unicode="&#x19e5;" horiz-adv-x="1300" 
d="M388 1130c0 -128 87.333 -192.001 262 -192.001h300l-250 230v132c0 50 16.667 95.833 50 137.5s79.333 62.5 138 62.5h212v-138h-212v-164l212 -260l-52 -138h-398c-300 0 -450 110 -450 330v460c0 98 41.667 164.667 125 200c14.667 6.66699 29 12.334 43 17.001
c-45.333 38 -68 77.667 -68 119c0 96 60 144 180 144c126.667 0 190 -48 190 -144c0 -34.667 -25 -69 -75 -103c67.333 -20 125.666 -30 174.999 -30c46.667 0 82 11 106 33s36 49.667 36 83v251h188v-251c0 -82 -29.667 -143.333 -89 -184
c-55.333 -46.667 -135.666 -70 -240.999 -70c-104 0 -203.333 16.333 -298 49c-24 -12.667 -44 -26.667 -60 -42s-24 -39.333 -24 -72v-460zM388 450.999c0 -54 26 -81 78 -81c118 0 205.333 43.333 262 130l84 129h188v-1184h-188v933c-72.667 -96 -188 -144 -346 -144
c-177.333 0 -266 72.333 -266 217c0 118.667 80.667 178 242 178h53v-136h-53c-36 0 -54 -14 -54 -42z" />
    <glyph glyph-name="uni19E6" unicode="&#x19e6;" horiz-adv-x="1300" 
d="M200 2160h188.001v-214c85.333 36 172.666 54 261.999 54c300 0 450 -133.333 450 -400v-400c0 -266.667 -150 -400 -450 -400s-450 116.667 -450 350s116.667 350 350 350h150v-138h-150c-108 0 -162 -70.667 -162 -212s87.333 -212 262 -212s262 87.333 262 262v400
c0 174.667 -87.333 262 -262 262s-262 -67.333 -262 -202h-188v500zM388.001 451c0 -54 26 -81 78 -81c118 0 205.333 43.333 262 130l84 129h188v-1184h-188v933c-72.667 -96 -188 -144 -346 -144c-177.333 0 -266 72.333 -266 217c0 118.667 80.667 178 242 178h53v-136
h-53c-36 0 -54 -14 -54 -42z" />
    <glyph glyph-name="uni19E7" unicode="&#x19e7;" horiz-adv-x="1600" 
d="M1050 938h162.002v1222h188v-1222c0 -92 -91.667 -138 -275 -138c-175.333 0 -263 46 -263 138v785c0 84.667 -19.333 127 -58 127c-30.667 0 -71.667 -31.333 -123 -94c-17.333 -20.667 -36 -31 -56 -31s-38.667 10.333 -56 31c-50.667 62.667 -91.334 94 -122.001 94
c-39.333 0 -59 -42.333 -59 -127v-785h162v-138h-350v923c0 75.333 23.667 140.333 71 195s100.666 82 159.999 82s124 -41.333 194 -124c70.667 82.667 136 124 196 124c58.667 0 111.667 -27.333 159 -82c46.667 -54.667 70 -119.667 70 -195v-785zM388.002 451
c0 -54 26 -81 78 -81c118 0 205.333 43.333 262 130l84 129h188v-1184h-188v933c-72.667 -96 -188 -144 -346 -144c-177.333 0 -266 72.333 -266 217c0 118.667 80.667 178 242 178h53v-136h-53c-36 0 -54 -14 -54 -42z" />
    <glyph glyph-name="uni19E8" unicode="&#x19e8;" horiz-adv-x="1300" 
d="M200 1680c0 213.333 150.001 320 450.001 320c89.333 0 176.666 -18 261.999 -54v214h188v-480h-188c0 121.333 -87.333 182 -262 182s-262 -60.667 -262 -182v-714l263 239l261 -238v353c0 53.333 -17.333 80 -52 80h-180v150h180c160 0 240 -76.667 240 -230v-520h-218
l-231 210l-232 -210h-219v880zM388.001 451c0 -54 26 -81 78 -81c118 0 205.333 43.333 262 130l84 129h188v-1184h-188v933c-72.667 -96 -188 -144 -346 -144c-177.333 0 -266 72.333 -266 217c0 118.667 80.667 178 242 178h53v-136h-53c-36 0 -54 -14 -54 -42z" />
    <glyph glyph-name="uni19E9" unicode="&#x19e9;" horiz-adv-x="1300" 
d="M912 2160l188.001 0.000976562v-418h-188c0 80 -87.333 120 -262 120s-262 -53.333 -262 -160c0 -81.333 87.333 -122 262 -122h300v-138h-300c-174.667 0 -262 -38.667 -262 -116v-226c0 -108 87.333 -162 262 -162s262 53.333 262 160c0 66.667 -54 100 -162 100h-100
v128h100c233.333 0 350 -77.667 350 -233c0 -195.333 -150 -293 -450 -293s-450 100 -450 300v226c26 97.333 72 160.333 138 189c-66 29.333 -112 91.666 -138 186.999c0 198.667 150 298 450 298c89.333 0 176.666 -12.667 261.999 -38v198zM388.001 451.001
c0 -54 26 -81 78 -81c118 0 205.333 43.333 262 130l84 129h188v-1184h-188v933c-72.667 -96 -188 -144 -346 -144c-177.333 0 -266 72.333 -266 217c0 118.667 80.667 178 242 178h53v-136h-53c-36 0 -54 -14 -54 -42z" />
    <glyph glyph-name="uni19EA" unicode="&#x19ea;" horiz-adv-x="2600" 
d="M912 1120v560c0 121.333 -87.333 182 -262 182s-262 -60.667 -262 -182v-120c0 -53.333 42.333 -80 127 -80h135v-160h-135c-210 0 -315 80 -315 240v120c0 213.333 150 320 450 320s450 -106.667 450 -320v-560c0 -213.333 -150 -320 -450 -320s-450 106.667 -450 320
h188c0 -121.333 87.333 -182 262 -182s262 60.667 262 182zM1950 938c174.667 0 262 80.667 262 242v440c0 161.333 -87.333 242 -262 242s-262 -80.667 -262 -242v-440c0 -161.333 87.333 -242 262 -242zM1500 1620c0 253.333 150 380 450 380s450 -126.667 450 -380v-440
c0 -253.333 -150 -380 -450 -380s-450 126.667 -450 380v440zM988 430c0 -54.667 26 -82 78 -82c118 0 205.333 43.667 262 131l84 131h188v-1165h-188v911c-72.667 -97.333 -188 -146 -346 -146c-177.333 0 -266 73.333 -266 220c0 120 80.667 180 242 180h53v-138h-53
c-36 0 -54 -14 -54 -42z" />
    <glyph glyph-name="uni19EB" unicode="&#x19eb;" horiz-adv-x="2600" 
d="M2212 1120v560c0 121.333 -87.333 182 -262 182s-262 -60.667 -262 -182v-120c0 -53.333 42.333 -80 127 -80h135v-160h-135c-210 0 -315 80 -315 240v120c0 213.333 150 320 450 320s450 -106.667 450 -320v-560c0 -213.333 -150 -320 -450 -320s-450 106.667 -450 320
h188c0 -121.333 87.333 -182 262 -182s262 60.667 262 182zM912 1120v560c0 121.333 -87.333 182 -262 182s-262 -60.667 -262 -182v-120c0 -53.333 42.333 -80 127 -80h135v-160h-135c-210 0 -315 80 -315 240v120c0 213.333 150 320 450 320s450 -106.667 450 -320v-560
c0 -213.333 -150 -320 -450 -320s-450 106.667 -450 320h188c0 -121.333 87.333 -182 262 -182s262 60.667 262 182zM988 430c0 -54.667 26 -82 78 -82c118 0 205.333 43.667 262 131l84 131h188v-1165h-188v911c-72.667 -97.333 -188 -146 -346 -146
c-177.333 0 -266 73.333 -266 220c0 120 80.667 180 242 180h53v-138h-53c-36 0 -54 -14 -54 -42z" />
    <glyph glyph-name="uni19EC" unicode="&#x19ec;" horiz-adv-x="2838" 
d="M912 1120v560c0 121.333 -87.333 182 -262 182s-262 -60.667 -262 -182v-120c0 -53.333 42.333 -80 127 -80h135v-160h-135c-210 0 -315 80 -315 240v120c0 213.333 150 320 450 320s450 -106.667 450 -320v-560c0 -213.333 -150 -320 -450 -320s-450 106.667 -450 320
h188c0 -121.333 87.333 -182 262 -182s262 60.667 262 182zM2638 1200c0 -266.667 -189.667 -400 -569 -400s-569 133.333 -569 400v810h-100v150h100c125.333 0 188 -50 188 -150v-810c0 -174.667 127 -262 381 -262s381 87.333 381 262v632l-210 -174l-200 174v-282h50
v-150h-248v600h198l200 -174l210 174h188v-800zM988 430c0 -54.667 26 -82 78 -82c118 0 205.333 43.667 262 131l84 131h188v-1165h-188v911c-72.667 -97.333 -188 -146 -346 -146c-177.333 0 -266 73.333 -266 220c0 120 80.667 180 242 180h53v-138h-53
c-36 0 -54 -14 -54 -42z" />
    <glyph glyph-name="uni19ED" unicode="&#x19ed;" horiz-adv-x="3064" 
d="M912 1120v560c0 121.333 -87.333 182 -262 182s-262 -60.667 -262 -182v-120c0 -53.333 42.333 -80 127 -80h135v-160h-135c-210 0 -315 80 -315 240v120c0 213.333 150 320 450 320s450 -106.667 450 -320v-560c0 -213.333 -150 -320 -450 -320s-450 106.667 -450 320
h188c0 -121.333 87.333 -182 262 -182s262 60.667 262 182zM2276 800h-188.001v840c0 148 -66.667 222 -200 222s-200 -74 -200 -222v-702h100v-138h-288v850c0 233.333 129.333 350 388 350c132.667 0 230.334 -29.667 293.001 -89c62.667 59.333 161 89 295 89
c258.667 0 388 -120 388 -360v-840h-188v840c0 148 -66.667 222 -200 222s-200 -74 -200 -222v-840zM987.999 430c0 -54.667 26 -82 78 -82c118 0 205.333 43.667 262 131l84 131h188v-1165h-188v911c-72.667 -97.333 -188 -146 -346 -146c-177.333 0 -266 73.333 -266 220
c0 120 80.667 180 242 180h53v-138h-53c-36 0 -54 -14 -54 -42z" />
    <glyph glyph-name="uni19EE" unicode="&#x19ee;" horiz-adv-x="2600" 
d="M912 1120v560c0 121.333 -87.333 182 -262 182s-262 -60.667 -262 -182v-120c0 -53.333 42.333 -80 127 -80h135v-160h-135c-210 0 -315 80 -315 240v120c0 213.333 150 320 450 320s450 -106.667 450 -320v-560c0 -213.333 -150 -320 -450 -320s-450 106.667 -450 320
h188c0 -121.333 87.333 -182 262 -182s262 60.667 262 182zM1950 938h320l-270 310v352c0 50 16.667 85.5 50 106.5s83.333 31.5 150 31.5h200v-138h-212v-302l212 -360l-50 -138h-400c-300 0 -450 133.333 -450 400v800h-100v160h100c125.333 0 188 -50 188 -150v-810
c0 -174.667 87.333 -262 262 -262zM988 430c0 -54.667 26 -82 78 -82c118 0 205.333 43.667 262 131l84 131h188v-1165h-188v911c-72.667 -97.333 -188 -146 -346 -146c-177.333 0 -266 73.333 -266 220c0 120 80.667 180 242 180h53v-138h-53c-36 0 -54 -14 -54 -42z" />
    <glyph glyph-name="uni19EF" unicode="&#x19ef;" horiz-adv-x="2600" 
d="M912 1120v560c0 121.333 -87.333 182 -262 182s-262 -60.667 -262 -182v-120c0 -53.333 42.333 -80 127 -80h135v-160h-135c-210 0 -315 80 -315 240v120c0 213.333 150 320 450 320s450 -106.667 450 -320v-560c0 -213.333 -150 -320 -450 -320s-450 106.667 -450 320
h188c0 -121.333 87.333 -182 262 -182s262 60.667 262 182zM1688 1130c0 -128 87.334 -192.001 262.001 -192.001h300l-250 230v112c0 50 16.667 95.833 50 137.5s79.333 62.5 138 62.5h212v-138h-212v-144l212 -260l-52 -138h-398c-300 0 -450 110 -450 330v440
c0 98 41.667 164.667 125 200c14.667 6.66699 29 12.334 43 17.001c-45.333 38 -68 77.667 -68 119c0 96 60 144 180 144c126.667 0 190 -48 190 -144c0 -34.667 -25 -69 -75 -103c67.333 -20 125.666 -30 174.999 -30c46.667 0 82 11 106 33s36 49.667 36 83v271h188v-271
c0 -82 -29.667 -143.333 -89 -184c-55.333 -46.667 -135.666 -70 -241 -70c-104 0 -203.333 16.333 -298 49c-24 -12.667 -44 -26.667 -60 -42s-24 -39.333 -24 -72v-440zM988.001 429.999c0 -54.667 26 -82 78 -82c118 0 205.333 43.667 262 131l84 131h188v-1165h-188v911
c-72.667 -97.333 -188 -146 -346 -146c-177.333 0 -266 73.333 -266 220c0 120 80.667 180 242 180h53v-138h-53c-36 0 -54 -14 -54 -42z" />
    <glyph glyph-name="uni19F0" unicode="&#x19f0;" horiz-adv-x="1300" 
d="M1100 290h-187.998c0 121.333 -87.333 182 -262 182s-262 -60.667 -262 -182v-674l263 239l261 -238v313c0 53.333 -17.333 80 -52 80h-180v150h180c160 0 240 -76.667 240 -230v-480h-218l-231 210l-232 -210h-219v840c0 213.333 150 320 450 320
c89.333 0 176.666 -18 261.999 -54v244h-30l-231 210l-232 -210h-219v880c0 213.333 150 320 450 320c89.333 0 176.666 -18 261.999 -54v214h188v-480h-188c0 121.333 -87.333 182 -262 182s-262 -60.667 -262 -182v-714l263 239l261 -238v353c0 53.333 -17.333 80 -52 80
h-180v150h180c160 0 240 -76.667 240 -230v-1030z" />
    <glyph glyph-name="uni19F1" unicode="&#x19f1;" horiz-adv-x="1300" 
d="M912 -230v560c0 121.333 -87.333 182 -262 182s-262 -60.667 -262 -182v-120c0 -53.333 42.333 -80 127 -80h135v-160h-135c-210 0 -315 80 -315 240v120c0 213.333 150 320 450 320s450 -106.667 450 -320v-560c0 -213.333 -150 -320 -450 -320s-450 106.667 -450 320
h188c0 -121.333 87.333 -182 262 -182s262 60.667 262 182zM388 1820c0 -54.667 26 -82 78 -82c118 0 205.333 43.667 262 131l84 131h188v-1200h-188v946c-72.667 -97.333 -188 -146 -346 -146c-177.333 0 -266 73.333 -266 220c0 120 80.667 180 242 180h53v-138h-53
c-36 0 -54 -14 -54 -42z" />
    <glyph glyph-name="uni19F2" unicode="&#x19f2;" horiz-adv-x="1538" 
d="M1338 -150c0 -266.667 -189.667 -400 -569 -400s-569 133.333 -569 400v900h-100v150h100c125.333 0 188 -50 188 -150v-900c0 -174.667 127 -262 381 -262s381 87.333 381 262v632l-210 -174l-200 174v-282h50v-150h-248v600h198l200 -174l210 174h188v-800zM388 1820
c0 -54.667 26 -82 78 -82c118 0 205.333 43.667 262 131l84 131h188v-1200h-188v946c-72.667 -97.333 -188 -146 -346 -146c-177.333 0 -266 73.333 -266 220c0 120 80.667 180 242 180h53v-138h-53c-36 0 -54 -14 -54 -42z" />
    <glyph glyph-name="uni19F3" unicode="&#x19f3;" horiz-adv-x="1764" 
d="M976 -550h-188.001v840c0 148 -66.667 222 -200 222s-200 -74 -200 -222v-702h100v-138h-288v850c0 233.333 129.333 350 388 350c132.667 0 230.334 -29.667 293.001 -89c62.667 59.333 161 89 295 89c258.667 0 388 -120 388 -360v-840h-188v840
c0 148 -66.667 222 -200 222s-200 -74 -200 -222v-840zM387.999 1820c0 -54.667 26 -82 78 -82c118 0 205.333 43.667 262 131l84 131h188v-1200h-188v946c-72.667 -97.333 -188 -146 -346 -146c-177.333 0 -266 73.333 -266 220c0 120 80.667 180 242 180h53v-138h-53
c-36 0 -54 -14 -54 -42z" />
    <glyph glyph-name="uni19F4" unicode="&#x19f4;" horiz-adv-x="1300" 
d="M650 -412h320l-270 310v352c0 50 16.667 85.5 50 106.5s83.333 31.5 150 31.5h200v-138h-212v-302l212 -360l-50 -138h-400c-300 0 -450 133.333 -450 400v900h-100v160h100c125.333 0 188 -50 188 -150v-910c0 -174.667 87.333 -262 262 -262zM388 1820
c0 -54.667 26 -82 78 -82c118 0 205.333 43.667 262 131l84 131h188v-1200h-188v946c-72.667 -97.333 -188 -146 -346 -146c-177.333 0 -266 73.333 -266 220c0 120 80.667 180 242 180h53v-138h-53c-36 0 -54 -14 -54 -42z" />
    <glyph glyph-name="uni19F5" unicode="&#x19f5;" horiz-adv-x="1300" 
d="M1000 1020l100 -0.000976562v-361c0 -82 -29.667 -143.333 -89 -184c-55.333 -46.667 -135.666 -70 -240.999 -70c-104 0 -203.333 16.333 -298 49c-24 -12.667 -44 -26.667 -60 -42s-24 -39.333 -24 -72v-560c0 -128 87.333 -192 262 -192h300l-250 230v232
c0 50 16.667 95.833 50 137.5s79.333 62.5 138 62.5h212v-138h-212v-264l212 -260l-52 -138h-398c-300 0 -450 110 -450 330v560c0 98 41.667 164.667 125 200c14.667 6.66699 29 12.334 43 17.001c-45.333 38 -68 77.667 -68 119c0 96 60 144 180 144
c126.667 0 190 -48 190 -144c0 -34.667 -25 -69 -75 -103c67.333 -20 125.666 -30 174.999 -30c46.667 0 82 11 106 33s36 49.667 36 83v181h-100v906c-72.667 -97.333 -188 -146 -346 -146c-177.333 0 -266 73.333 -266 220c0 120 80.667 180 242 180h53v-138h-53
c-36 0 -54 -14 -54 -42c0 -54.667 26 -82 78 -82c118 0 205.333 43.667 262 131l84 131h188v-980z" />
    <glyph glyph-name="uni19F6" unicode="&#x19f6;" horiz-adv-x="1300" 
d="M200 1000h188.001v-404c85.333 36 172.666 54 261.999 54c300 0 450 -133.333 450 -400v-400c0 -266.667 -150 -400 -450 -400s-450 116.667 -450 350s116.667 350 350 350h150v-138h-150c-108 0 -162 -70.667 -162 -212s87.333 -212 262 -212s262 87.333 262 262v400
c0 174.667 -87.333 262 -262 262s-262 -67.333 -262 -202h-188v690zM388.001 1820c0 -54.667 26 -82 78 -82c118 0 205.333 43.667 262 131l84 131h188v-1200h-188v946c-72.667 -97.333 -188 -146 -346 -146c-177.333 0 -266 73.333 -266 220c0 120 80.667 180 242 180h53
v-138h-53c-36 0 -54 -14 -54 -42z" />
    <glyph glyph-name="uni19F7" unicode="&#x19f7;" horiz-adv-x="1600" 
d="M1050 -412h162.002v1362h188v-1362c0 -92 -91.667 -138 -275 -138c-175.333 0 -263 46 -263 138v785c0 84.667 -19.333 127 -58 127c-30.667 0 -71.667 -31.333 -123 -94c-17.333 -20.667 -36 -31 -56 -31s-38.667 10.333 -56 31c-50.667 62.667 -91.334 94 -122.001 94
c-39.333 0 -59 -42.333 -59 -127v-785h162v-138h-350v923c0 75.333 23.667 140.333 71 195s100.666 82 159.999 82s124 -41.333 194 -124c70.667 82.667 136 124 196 124c58.667 0 111.667 -27.333 159 -82c46.667 -54.667 70 -119.667 70 -195v-785zM388.002 1820
c0 -54.667 26 -82 78 -82c118 0 205.333 43.667 262 131l84 131h188v-1200h-188v946c-72.667 -97.333 -188 -146 -346 -146c-177.333 0 -266 73.333 -266 220c0 120 80.667 180 242 180h53v-138h-53c-36 0 -54 -14 -54 -42z" />
    <glyph glyph-name="uni19F8" unicode="&#x19f8;" horiz-adv-x="1300" 
d="M1000 1000h100.001v-670h-188c0 121.333 -87.333 182 -262 182s-262 -60.667 -262 -182v-714l263 239l261 -238v353c0 53.333 -17.333 80 -52 80h-180v150h180c160 0 240 -76.667 240 -230v-520h-218l-231 210l-232 -210h-219v880c0 213.333 150 320 450 320
c89.333 0 176.666 -18 261.999 -54v244h-100v906c-72.667 -97.333 -188 -146 -346 -146c-177.333 0 -266 73.333 -266 220c0 120 80.667 180 242 180h53v-138h-53c-36 0 -54 -14 -54 -42c0 -54.667 26 -82 78 -82c118 0 205.333 43.667 262 131l84 131h188v-1000z" />
    <glyph glyph-name="uni19F9" unicode="&#x19f9;" horiz-adv-x="1300" 
d="M1000 960l100.001 0.000976562v-568h-188c0 80 -87.333 120 -262 120s-262 -53.333 -262 -160c0 -81.333 87.333 -122 262 -122h300v-138h-300c-174.667 0 -262 -38.667 -262 -116v-226c0 -108 87.333 -162 262 -162s262 53.333 262 160c0 66.667 -54 100 -162 100h-100
v128h100c233.333 0 350 -77.667 350 -233c0 -195.333 -150 -293 -450 -293s-450 100 -450 300v226c26 97.333 72 160.333 138 189c-66 29.333 -112 91.666 -138 186.999c0 198.667 150 298 450 298c89.333 0 176.666 -12.667 261.999 -38v228h-100v906
c-72.667 -97.333 -188 -146 -346 -146c-177.333 0 -266 73.333 -266 220c0 120 80.667 180 242 180h53v-138h-53c-36 0 -54 -14 -54 -42c0 -54.667 26 -82 78 -82c118 0 205.333 43.667 262 131l84 131h188v-1040z" />
    <glyph glyph-name="uni19FA" unicode="&#x19fa;" horiz-adv-x="2600" 
d="M912 -230v560c0 121.333 -87.333 182 -262 182s-262 -60.667 -262 -182v-120c0 -53.333 42.333 -80 127 -80h135v-160h-135c-210 0 -315 80 -315 240v120c0 213.333 150 320 450 320s450 -106.667 450 -320v-560c0 -213.333 -150 -320 -450 -320s-450 106.667 -450 320
h188c0 -121.333 87.333 -182 262 -182s262 60.667 262 182zM1950 -412c174.667 0 262 80.667 262 242v440c0 161.333 -87.333 242 -262 242s-262 -80.667 -262 -242v-440c0 -161.333 87.333 -242 262 -242zM1500 270c0 253.333 150 380 450 380s450 -126.667 450 -380v-440
c0 -253.333 -150 -380 -450 -380s-450 126.667 -450 380v440zM988 1820c0 -54.667 26 -82 78 -82c118 0 205.333 43.667 262 131l84 131h188v-1200h-188v946c-72.667 -97.333 -188 -146 -346 -146c-177.333 0 -266 73.333 -266 220c0 120 80.667 180 242 180h53v-138h-53
c-36 0 -54 -14 -54 -42z" />
    <glyph glyph-name="uni19FB" unicode="&#x19fb;" horiz-adv-x="2600" 
d="M2212 -230v560c0 121.333 -87.333 182 -262 182s-262 -60.667 -262 -182v-120c0 -53.333 42.333 -80 127 -80h135v-160h-135c-210 0 -315 80 -315 240v120c0 213.333 150 320 450 320s450 -106.667 450 -320v-560c0 -213.333 -150 -320 -450 -320s-450 106.667 -450 320
h188c0 -121.333 87.333 -182 262 -182s262 60.667 262 182zM912 -230v560c0 121.333 -87.333 182 -262 182s-262 -60.667 -262 -182v-120c0 -53.333 42.333 -80 127 -80h135v-160h-135c-210 0 -315 80 -315 240v120c0 213.333 150 320 450 320s450 -106.667 450 -320v-560
c0 -213.333 -150 -320 -450 -320s-450 106.667 -450 320h188c0 -121.333 87.333 -182 262 -182s262 60.667 262 182zM988 1820c0 -54.667 26 -82 78 -82c118 0 205.333 43.667 262 131l84 131h188v-1200h-188v946c-72.667 -97.333 -188 -146 -346 -146
c-177.333 0 -266 73.333 -266 220c0 120 80.667 180 242 180h53v-138h-53c-36 0 -54 -14 -54 -42z" />
    <glyph glyph-name="uni19FC" unicode="&#x19fc;" horiz-adv-x="2838" 
d="M912 -230v560c0 121.333 -87.333 182 -262 182s-262 -60.667 -262 -182v-120c0 -53.333 42.333 -80 127 -80h135v-160h-135c-210 0 -315 80 -315 240v120c0 213.333 150 320 450 320s450 -106.667 450 -320v-560c0 -213.333 -150 -320 -450 -320s-450 106.667 -450 320
h188c0 -121.333 87.333 -182 262 -182s262 60.667 262 182zM1600 885c58.667 -21.333 88 -66.333 88 -135v-900c0 -174.667 127 -262 381 -262s381 87.333 381 262v632l-210 -174l-200 174v-282h50v-150h-248v600h198l200 -174l210 174h188v-800
c0 -266.667 -189.667 -400 -569 -400s-569 133.333 -569 400v900h-100v150h12v846c-72.667 -97.333 -188 -146 -346 -146c-177.333 0 -266 73.333 -266 220c0 120 80.667 180 242 180h53v-138h-53c-36 0 -54 -14 -54 -42c0 -54.667 26 -82 78 -82
c118 0 205.333 43.667 262 131l84 131h188v-1115z" />
    <glyph glyph-name="uni19FD" unicode="&#x19fd;" horiz-adv-x="3064" 
d="M912 -230v560c0 121.333 -87.333 182 -262 182s-262 -60.667 -262 -182v-120c0 -53.333 42.333 -80 127 -80h135v-160h-135c-210 0 -315 80 -315 240v120c0 213.333 150 320 450 320s450 -106.667 450 -320v-560c0 -213.333 -150 -320 -450 -320s-450 106.667 -450 320
h188c0 -121.333 87.333 -182 262 -182s262 60.667 262 182zM2276 -550h-188.001v840c0 148 -66.667 222 -200 222s-200 -74 -200 -222v-702h100v-138h-288v850c0 233.333 129.333 350 388 350c132.667 0 230.334 -29.667 293.001 -89c62.667 59.333 161 89 295 89
c258.667 0 388 -120 388 -360v-840h-188v840c0 148 -66.667 222 -200 222s-200 -74 -200 -222v-840zM987.999 1820c0 -54.667 26 -82 78 -82c118 0 205.333 43.667 262 131l84 131h188v-1200h-188v946c-72.667 -97.333 -188 -146 -346 -146c-177.333 0 -266 73.333 -266 220
c0 120 80.667 180 242 180h53v-138h-53c-36 0 -54 -14 -54 -42z" />
    <glyph glyph-name="uni19FE" unicode="&#x19fe;" horiz-adv-x="2600" 
d="M912 -230v560c0 121.333 -87.333 182 -262 182s-262 -60.667 -262 -182v-120c0 -53.333 42.333 -80 127 -80h135v-160h-135c-210 0 -315 80 -315 240v120c0 213.333 150 320 450 320s450 -106.667 450 -320v-560c0 -213.333 -150 -320 -450 -320s-450 106.667 -450 320
h188c0 -121.333 87.333 -182 262 -182s262 60.667 262 182zM1600 895c58.667 -21.333 88 -66.333 88 -135v-910c0 -174.667 87.333 -262 262 -262h320l-270 310v352c0 50 16.667 85.5 50 106.5s83.333 31.5 150 31.5h200v-138h-212v-302l212 -360l-50 -138h-400
c-300 0 -450 133.333 -450 400v900h-100v160h12v836c-72.667 -97.333 -188 -146 -346 -146c-177.333 0 -266 73.333 -266 220c0 120 80.667 180 242 180h53v-138h-53c-36 0 -54 -14 -54 -42c0 -54.667 26 -82 78 -82c118 0 205.333 43.667 262 131l84 131h188v-1105z" />
    </font>
</defs>
</svg>
